<?xml version="1.0" encoding="UTF-8" standalone="no"?>
<svg width="391.231mm" height="63.5mm"
 xmlns="http://www.w3.org/2000/svg" xmlns:xlink="http://www.w3.org/1999/xlink"  version="1.2" baseProfile="tiny">
<title>Qt SVG Document</title>
<desc>Generated with Qt</desc>
<defs>
</defs>
<g fill="none" stroke="black" stroke-width="1" fill-rule="evenodd" stroke-linecap="square" stroke-linejoin="bevel" >

<g fill="none" stroke="#000000" stroke-opacity="1" stroke-width="1" stroke-linecap="square" stroke-linejoin="bevel" transform="matrix(1,0,0,1,0,0)"
font-family="Ubuntu" font-size="11" font-weight="400" font-style="normal" 
>
</g>

<g fill="none" stroke="#000000" stroke-opacity="1" stroke-width="1" stroke-linecap="square" stroke-linejoin="bevel" transform="matrix(1,0,0,1,0,0)"
font-family="Ubuntu" font-size="11" font-weight="400" font-style="normal" 
>
</g>

<g fill="none" stroke="#000000" stroke-opacity="1" stroke-width="1" stroke-linecap="square" stroke-linejoin="bevel" transform="matrix(1.99977,0,0,1.99977,0.00359959,179.979)"
font-family="Ubuntu" font-size="11" font-weight="400" font-style="normal" 
>
</g>

<g fill="#ffffff" fill-opacity="1" stroke="none" transform="matrix(1.99977,0,0,1.99977,0.00359959,179.979)"
font-family="Ubuntu" font-size="11" font-weight="400" font-style="normal" 
>
<rect x="-0.0018" y="-90" width="554.563" height="90"/>
</g>

<g fill="none" stroke="#000000" stroke-opacity="1" stroke-width="1" stroke-linecap="square" stroke-linejoin="bevel" transform="matrix(1.99977,0,0,1.99977,0.00359959,179.979)"
font-family="Ubuntu" font-size="11" font-weight="400" font-style="normal" 
>
</g>

<g fill="none" stroke="#000000" stroke-opacity="1" stroke-width="1" stroke-linecap="square" stroke-linejoin="bevel" transform="matrix(1.99977,0,0,1.99977,0.00359959,179.979)"
font-family="Ubuntu" font-size="11" font-weight="400" font-style="normal" 
>
</g>

<g fill="none" stroke="#000000" stroke-opacity="1" stroke-width="1" stroke-linecap="square" stroke-linejoin="bevel" transform="matrix(1.99977,0,0,1.99977,0.00359959,179.979)"
font-family="Ubuntu" font-size="11" font-weight="400" font-style="normal" 
>
</g>

<g fill="none" stroke="#000000" stroke-opacity="1" stroke-width="1" stroke-linecap="square" stroke-linejoin="bevel" transform="matrix(1.99977,0,0,1.99977,0.00359959,179.979)"
font-family="Ubuntu" font-size="11" font-weight="400" font-style="normal" 
>
</g>

<g fill="none" stroke="#000000" stroke-opacity="1" stroke-width="1" stroke-linecap="square" stroke-linejoin="round" transform="matrix(1.99977,0,0,1.99977,0.00359959,179.979)"
font-family="Ubuntu" font-size="11" font-weight="400" font-style="normal" 
>
<ellipse cx="99.441" cy="-18" rx="96.34" ry="17.5"/>
</g>

<g fill="none" stroke="#000000" stroke-opacity="1" stroke-width="1" stroke-linecap="square" stroke-linejoin="bevel" transform="matrix(1.99977,0,0,1.99977,0.00359959,179.979)"
font-family="Ubuntu" font-size="11" font-weight="400" font-style="normal" 
>
</g>

<g fill="none" stroke="#000000" stroke-opacity="1" stroke-width="1" stroke-linecap="square" stroke-linejoin="bevel" transform="matrix(1.99977,0,0,1.99977,97.2026,129.985)"
font-family="Ubuntu" font-size="11" font-weight="400" font-style="normal" 
>
</g>

<g fill="none" stroke="#000000" stroke-opacity="1" stroke-width="1" stroke-linecap="square" stroke-linejoin="bevel" transform="matrix(1.99977,0,0,1.99977,97.2026,129.985)"
font-family="sans" font-size="11" font-weight="100" font-style="normal" 
>
</g>

<g fill="#000000" fill-opacity="1" stroke="#000000" stroke-opacity="1" stroke-width="1" stroke-linecap="square" stroke-linejoin="round" transform="matrix(1.99977,0,0,1.99977,97.2026,129.985)"
font-family="sans" font-size="11" font-weight="100" font-style="normal" 
>
<path vector-effect="none" fill-rule="nonzero" d="M2.96875,2.98438 L3.53125,2.98438 L0.734375,12.0156 L0.171875,12.0156 L2.96875,2.98438 M8.21875,5.40625 C8.13542,5.36458 8.02604,5.33333 7.89063,5.3125 C7.76563,5.29167 7.61458,5.28125 7.4375,5.28125 C6.82292,5.28125 6.31771,5.50521 5.92188,5.95313 C5.59896,6.31771 5.4375,6.94271 5.4375,7.82813 L5.4375,11 L4.95313,11 L4.95313,4.98438 L5.4375,4.98438 L5.4375,6.10938 C5.60417,5.78646 5.83333,5.51563 6.125,5.29688 C6.52083,4.99479 6.98958,4.84375 7.53125,4.84375 C7.67708,4.84375 7.80208,4.84896 7.90625,4.85938 C8.01042,4.85938 8.11458,4.86979 8.21875,4.89063 L8.21875,5.40625 M11.875,7.60938 C11.0729,7.60938 10.4974,7.75 10.1484,8.03125 C9.79948,8.3125 9.625,8.72396 9.625,9.26563 C9.625,9.79688 9.77083,10.1745 10.0625,10.3984 C10.3542,10.6224 10.6979,10.7344 11.0938,10.7344 C11.8438,10.7344 12.3854,10.4167 12.7188,9.78125 C13.0521,9.13542 13.2188,8.53125 13.2188,7.96875 L13.2188,7.60938 L11.875,7.60938 M13.7188,7.5625 L13.7188,11 L13.2188,11 L13.2188,9.35938 C12.9479,10.1615 12.5833,10.6719 12.125,10.8906 C11.7708,11.0677 11.4115,11.1563 11.0469,11.1563 C10.4531,11.1563 9.98438,10.9948 9.64063,10.6719 C9.29688,10.349 9.125,9.8776 9.125,9.25781 C9.125,8.63802 9.34896,8.14063 9.79688,7.76563 C10.2448,7.39063 10.974,7.20313 11.9844,7.20313 L13.2188,7.20313 L13.2188,7.10938 C13.2188,6.57813 13.0625,6.14063 12.75,5.79688 C12.4583,5.45313 11.9635,5.28125 11.2656,5.28125 C10.9219,5.28125 10.5729,5.34375 10.2188,5.46875 C9.98958,5.55208 9.6875,5.71875 9.3125,5.96875 L9.3125,5.4375 C9.63542,5.23958 9.9375,5.09896 10.2188,5.01563 C10.6146,4.90104 10.9948,4.84375 11.3594,4.84375 C12.0781,4.84375 12.6667,5.05729 13.125,5.48438 C13.5208,5.84896 13.7188,6.54167 13.7188,7.5625 M20.75,7.375 L20.75,11 L20.25,11 L20.25,7.40625 C20.25,6.625 20.125,6.07552 19.875,5.75781 C19.625,5.4401 19.2552,5.28125 18.7656,5.28125 C18.1927,5.28125 17.7083,5.45313 17.3125,5.79688 C16.8958,6.14063 16.6875,6.73958 16.6875,7.59375 L16.6875,11 L16.2031,11 L16.2031,4.98438 L16.6875,4.98438 L16.6875,6.10938 C16.8646,5.74479 17.099,5.46875 17.3906,5.28125 C17.8073,4.98958 18.2708,4.84375 18.7813,4.84375 C19.3854,4.84375 19.8646,5.04688 20.2188,5.45313 C20.5729,5.84896 20.75,6.48958 20.75,7.375 M27.1719,6.35938 L27.1719,2.64063 L27.6406,2.64063 L27.6406,11 L27.1719,11 L27.1719,9.64063 C26.9427,10.1615 26.6927,10.5156 26.4219,10.7031 C26.026,11.0052 25.6458,11.1563 25.2813,11.1563 C24.5729,11.1563 23.9818,10.8672 23.5078,10.2891 C23.0339,9.71094 22.7969,8.94792 22.7969,8 C22.7969,7.05208 23.0339,6.28906 23.5078,5.71094 C23.9818,5.13281 24.5729,4.84375 25.2813,4.84375 C25.6458,4.84375 26.026,4.98958 26.4219,5.28125 C26.6927,5.47917 26.9427,5.83854 27.1719,6.35938 M23.9375,5.90625 C23.5208,6.32292 23.3125,7.02083 23.3125,8 C23.3125,8.97917 23.5208,9.67708 23.9375,10.0938 C24.3542,10.5104 24.7917,10.7188 25.25,10.7188 C25.6979,10.7188 26.1302,10.5104 26.5469,10.0938 C26.9531,9.67708 27.1563,8.97917 27.1563,8 C27.1563,7.02083 26.9531,6.32292 26.5469,5.90625 C26.1302,5.48958 25.6979,5.28125 25.25,5.28125 C24.7917,5.28125 24.3542,5.48958 23.9375,5.90625 M33.7188,6.01563 C33.3646,5.52604 32.8802,5.28125 32.2656,5.28125 C31.651,5.28125 31.1667,5.52604 30.8125,6.01563 C30.4583,6.49479 30.2813,7.15104 30.2813,7.98438 C30.2813,8.83854 30.4583,9.51042 30.8125,10 C31.1667,10.4896 31.651,10.7344 32.2656,10.7344 C32.8802,10.7344 33.3646,10.4896 33.7188,10 C34.0729,9.5 34.25,8.82813 34.25,7.98438 C34.25,7.16146 34.0729,6.50521 33.7188,6.01563 M32.2656,4.84375 C33.026,4.84375 33.6302,5.13021 34.0781,5.70313 C34.526,6.27604 34.75,7.03646 34.75,7.98438 C34.75,8.97396 34.526,9.75521 34.0781,10.3281 C33.6302,10.901 33.026,11.1875 32.2656,11.1875 C31.4844,11.1875 30.8698,10.901 30.4219,10.3281 C29.9844,9.75521 29.7656,8.97396 29.7656,7.98438 C29.7656,7.02604 29.9896,6.26302 30.4375,5.69531 C30.8854,5.1276 31.4948,4.84375 32.2656,4.84375 M41.1875,6.29688 C41.375,5.80729 41.6667,5.44271 42.0625,5.20313 C42.4479,4.96354 42.901,4.84375 43.4219,4.84375 C43.9427,4.84375 44.3594,5.02604 44.6719,5.39063 C44.9948,5.75521 45.1563,6.41667 45.1563,7.375 L45.1563,11 L44.6719,11 L44.6719,7.40625 C44.6719,6.57292 44.5573,6.01042 44.3281,5.71875 C44.099,5.42708 43.7917,5.28125 43.4063,5.28125 C42.8542,5.28125 42.3698,5.44792 41.9531,5.78125 C41.4844,6.15625 41.25,6.76042 41.25,7.59375 L41.25,11 L40.7656,11 L40.7656,7.40625 C40.7656,6.60417 40.6536,6.04948 40.4297,5.74219 C40.2057,5.4349 39.8958,5.28125 39.5,5.28125 C38.9479,5.28125 38.4635,5.45313 38.0469,5.79688 C37.5781,6.16146 37.3438,6.76042 37.3438,7.59375 L37.3438,11 L36.8594,11 L36.8594,4.98438 L37.3438,4.98438 L37.3438,6.10938 C37.5208,5.71354 37.7969,5.40104 38.1719,5.17188 C38.5365,4.95313 38.9896,4.84375 39.5313,4.84375 C39.8854,4.84375 40.224,4.95833 40.5469,5.1875 C40.7969,5.375 41.0104,5.74479 41.1875,6.29688 M51.9219,13.1719 L51.9219,13.5938 L46.2031,13.5938 L46.2031,13.1719 L51.9219,13.1719 M53.1406,2.98438 L53.9375,2.98438 L57.8281,10.3125 L57.8281,2.98438 L58.3594,2.98438 L58.3594,11 L57.6094,11 L53.6875,3.625 L53.6875,11 L53.1406,11 L53.1406,2.98438 M61.2188,8.60938 L61.2188,4.98438 L61.7031,4.98438 L61.7031,8.57813 C61.7031,9.35938 61.8281,9.90885 62.0781,10.2266 C62.3281,10.5443 62.6979,10.7031 63.1875,10.7031 C63.7604,10.7031 64.25,10.5313 64.6563,10.1875 C65.0625,9.84375 65.2656,9.24479 65.2656,8.39063 L65.2656,4.98438 L65.75,4.98438 L65.75,11 L65.2656,11 L65.2656,9.875 C65.0885,10.2396 64.8542,10.5156 64.5625,10.7031 C64.1458,10.9948 63.6823,11.1406 63.1719,11.1406 C62.5781,11.1406 62.1042,10.9375 61.75,10.5313 C61.3958,10.1354 61.2188,9.49479 61.2188,8.60938 M72.5781,6.29688 C72.7656,5.80729 73.0573,5.44271 73.4531,5.20313 C73.8385,4.96354 74.2917,4.84375 74.8125,4.84375 C75.3333,4.84375 75.75,5.02604 76.0625,5.39063 C76.3854,5.75521 76.5469,6.41667 76.5469,7.375 L76.5469,11 L76.0625,11 L76.0625,7.40625 C76.0625,6.57292 75.9479,6.01042 75.7188,5.71875 C75.4896,5.42708 75.1823,5.28125 74.7969,5.28125 C74.2448,5.28125 73.7604,5.44792 73.3438,5.78125 C72.875,6.15625 72.6406,6.76042 72.6406,7.59375 L72.6406,11 L72.1563,11 L72.1563,7.40625 C72.1563,6.60417 72.0443,6.04948 71.8203,5.74219 C71.5964,5.4349 71.2865,5.28125 70.8906,5.28125 C70.3385,5.28125 69.8542,5.45313 69.4375,5.79688 C68.9688,6.16146 68.7344,6.76042 68.7344,7.59375 L68.7344,11 L68.25,11 L68.25,4.98438 L68.7344,4.98438 L68.7344,6.10938 C68.9115,5.71354 69.1875,5.40104 69.5625,5.17188 C69.9271,4.95313 70.3802,4.84375 70.9219,4.84375 C71.276,4.84375 71.6146,4.95833 71.9375,5.1875 C72.1875,5.375 72.401,5.74479 72.5781,6.29688 M82.6719,10.0938 C83.0885,9.67708 83.2969,8.97917 83.2969,8 C83.2969,7.02083 83.0885,6.32292 82.6719,5.90625 C82.2552,5.48958 81.8177,5.28125 81.3594,5.28125 C80.9115,5.28125 80.4792,5.48958 80.0625,5.90625 C79.6563,6.32292 79.4531,7.02083 79.4531,8 C79.4531,8.97917 79.6563,9.67708 80.0625,10.0938 C80.4792,10.5104 80.9115,10.7188 81.3594,10.7188 C81.8177,10.7188 82.2552,10.5104 82.6719,10.0938 M79.4375,6.35938 C79.6667,5.83854 79.9115,5.47917 80.1719,5.28125 C80.5781,4.98958 80.9635,4.84375 81.3281,4.84375 C82.0365,4.84375 82.6276,5.13281 83.1016,5.71094 C83.5755,6.28906 83.8125,7.05208 83.8125,8 C83.8125,8.94792 83.5755,9.71094 83.1016,10.2891 C82.6276,10.8672 82.0365,11.1563 81.3281,11.1563 C80.9635,11.1563 80.5781,11.0052 80.1719,10.7031 C79.9115,10.5156 79.6667,10.1615 79.4375,9.64063 L79.4375,11 L78.9531,11 L78.9531,2.64063 L79.4375,2.64063 L79.4375,6.35938 M90.6094,7.75 L90.6094,8.0625 L86.0469,8.0625 C86.0469,9.02083 86.2344,9.69792 86.6094,10.0938 C87.026,10.5208 87.6406,10.7344 88.4531,10.7344 C88.6719,10.7344 88.9583,10.6875 89.3125,10.5938 C89.6667,10.5 90.0208,10.3594 90.375,10.1719 L90.375,10.6875 C90.0208,10.8438 89.6589,10.9609 89.2891,11.0391 C88.9193,11.1172 88.625,11.1563 88.4063,11.1563 C87.4792,11.1563 86.7813,10.9063 86.3125,10.4063 C85.8021,9.875 85.5469,9.09375 85.5469,8.0625 C85.5469,6.98958 85.776,6.1875 86.2344,5.65625 C86.7135,5.11458 87.3802,4.84375 88.2344,4.84375 C89.0156,4.84375 89.6094,5.10417 90.0156,5.625 C90.4115,6.16667 90.6094,6.875 90.6094,7.75 M90.1094,7.64063 C90.1094,6.79688 89.9167,6.18229 89.5313,5.79688 C89.2188,5.45313 88.7865,5.28125 88.2344,5.28125 C87.6406,5.28125 87.1406,5.45833 86.7344,5.8125 C86.3594,6.14583 86.1354,6.75521 86.0625,7.64063 L90.1094,7.64063 M95.9531,5.40625 C95.8698,5.36458 95.7604,5.33333 95.625,5.3125 C95.5,5.29167 95.349,5.28125 95.1719,5.28125 C94.5573,5.28125 94.0521,5.50521 93.6563,5.95313 C93.3333,6.31771 93.1719,6.94271 93.1719,7.82813 L93.1719,11 L92.6875,11 L92.6875,4.98438 L93.1719,4.98438 L93.1719,6.10938 C93.3385,5.78646 93.5677,5.51563 93.8594,5.29688 C94.2552,4.99479 94.724,4.84375 95.2656,4.84375 C95.4115,4.84375 95.5365,4.84896 95.6406,4.85938 C95.7448,4.85938 95.849,4.86979 95.9531,4.89063 L95.9531,5.40625 M100.609,5.15625 L100.609,5.70313 C100.255,5.50521 100.036,5.39583 99.9531,5.375 C99.7031,5.32292 99.3906,5.29167 99.0156,5.28125 C98.4531,5.28125 98.0104,5.39063 97.6875,5.60938 C97.4375,5.79688 97.3125,6.11458 97.3125,6.5625 C97.3125,6.875 97.4323,7.11458 97.6719,7.28125 C97.9115,7.46875 98.2604,7.61458 98.7188,7.71875 L99.0625,7.78125 C99.6354,7.90625 100.068,8.08333 100.359,8.3125 C100.703,8.58333 100.88,8.92708 100.891,9.34375 C100.891,9.90625 100.724,10.349 100.391,10.6719 C100.036,10.9948 99.4583,11.1563 98.6563,11.1563 C98.2188,11.1563 97.8854,11.125 97.6563,11.0625 C97.375,10.9896 97.0833,10.8958 96.7813,10.7813 L96.7813,10.1563 C97.2188,10.4063 97.5,10.5521 97.625,10.5938 C97.9792,10.6875 98.3333,10.7344 98.6875,10.7344 C99.2604,10.7344 99.6875,10.6146 99.9688,10.375 C100.25,10.125 100.391,9.80729 100.391,9.42188 C100.391,9.08854 100.297,8.84896 100.109,8.70313 C99.8385,8.48438 99.4115,8.30729 98.8281,8.17188 L98.4844,8.09375 C97.974,7.96875 97.5885,7.80208 97.3281,7.59375 C96.9948,7.32292 96.8281,6.99479 96.8281,6.60938 C96.8281,5.98438 97.0286,5.53385 97.4297,5.25781 C97.8307,4.98177 98.3229,4.84375 98.9063,4.84375 C99.4063,4.84375 99.75,4.86979 99.9375,4.92188 C100.167,4.98438 100.391,5.0625 100.609,5.15625 "/>
</g>

<g fill="none" stroke="#000000" stroke-opacity="1" stroke-width="1" stroke-linecap="square" stroke-linejoin="bevel" transform="matrix(1.99977,0,0,1.99977,97.2026,129.985)"
font-family="sans" font-size="11" font-weight="100" font-style="normal" 
>
</g>

<g fill="none" stroke="#000000" stroke-opacity="1" stroke-width="1" stroke-linecap="square" stroke-linejoin="bevel" transform="matrix(1.99977,0,0,1.99977,97.2026,129.985)"
font-family="Ubuntu" font-size="11" font-weight="400" font-style="normal" 
>
</g>

<g fill="none" stroke="#000000" stroke-opacity="1" stroke-width="1" stroke-linecap="square" stroke-linejoin="bevel" transform="matrix(1.99977,0,0,1.99977,0.00359959,179.979)"
font-family="Ubuntu" font-size="11" font-weight="400" font-style="normal" 
>
</g>

<g fill="none" stroke="#000000" stroke-opacity="1" stroke-width="1" stroke-linecap="square" stroke-linejoin="bevel" transform="matrix(1.99977,0,0,1.99977,0.00359959,179.979)"
font-family="Ubuntu" font-size="11" font-weight="400" font-style="normal" 
>
</g>

<g fill="none" stroke="#000000" stroke-opacity="1" stroke-width="1" stroke-linecap="square" stroke-linejoin="bevel" transform="matrix(1.99977,0,0,1.99977,0.00359959,179.979)"
font-family="Ubuntu" font-size="11" font-weight="400" font-style="normal" 
>
</g>

<g fill="none" stroke="#000000" stroke-opacity="1" stroke-width="1" stroke-linecap="square" stroke-linejoin="round" transform="matrix(1.99977,0,0,1.99977,0.00359959,179.979)"
font-family="Ubuntu" font-size="11" font-weight="400" font-style="normal" 
>
<ellipse cx="451.22" cy="-18" rx="102.842" ry="17.5"/>
</g>

<g fill="none" stroke="#000000" stroke-opacity="1" stroke-width="1" stroke-linecap="square" stroke-linejoin="bevel" transform="matrix(1.99977,0,0,1.99977,0.00359959,179.979)"
font-family="Ubuntu" font-size="11" font-weight="400" font-style="normal" 
>
</g>

<g fill="none" stroke="#000000" stroke-opacity="1" stroke-width="1" stroke-linecap="square" stroke-linejoin="bevel" transform="matrix(1.99977,0,0,1.99977,791.306,129.985)"
font-family="Ubuntu" font-size="11" font-weight="400" font-style="normal" 
>
</g>

<g fill="none" stroke="#000000" stroke-opacity="1" stroke-width="1" stroke-linecap="square" stroke-linejoin="bevel" transform="matrix(1.99977,0,0,1.99977,791.306,129.985)"
font-family="sans" font-size="11" font-weight="100" font-style="normal" 
>
</g>

<g fill="#000000" fill-opacity="1" stroke="#000000" stroke-opacity="1" stroke-width="1" stroke-linecap="square" stroke-linejoin="round" transform="matrix(1.99977,0,0,1.99977,791.306,129.985)"
font-family="sans" font-size="11" font-weight="100" font-style="normal" 
>
<path vector-effect="none" fill-rule="nonzero" d="M2.96875,2.98438 L3.53125,2.98438 L0.734375,12.0156 L0.171875,12.0156 L2.96875,2.98438 M8.35938,5.15625 L8.35938,5.70313 C8.00521,5.50521 7.78646,5.39583 7.70313,5.375 C7.45313,5.32292 7.14063,5.29167 6.76563,5.28125 C6.20313,5.28125 5.76042,5.39063 5.4375,5.60938 C5.1875,5.79688 5.0625,6.11458 5.0625,6.5625 C5.0625,6.875 5.18229,7.11458 5.42188,7.28125 C5.66146,7.46875 6.01042,7.61458 6.46875,7.71875 L6.8125,7.78125 C7.38542,7.90625 7.81771,8.08333 8.10938,8.3125 C8.45313,8.58333 8.63021,8.92708 8.64063,9.34375 C8.64063,9.90625 8.47396,10.349 8.14063,10.6719 C7.78646,10.9948 7.20833,11.1563 6.40625,11.1563 C5.96875,11.1563 5.63542,11.125 5.40625,11.0625 C5.125,10.9896 4.83333,10.8958 4.53125,10.7813 L4.53125,10.1563 C4.96875,10.4063 5.25,10.5521 5.375,10.5938 C5.72917,10.6875 6.08333,10.7344 6.4375,10.7344 C7.01042,10.7344 7.4375,10.6146 7.71875,10.375 C8,10.125 8.14063,9.80729 8.14063,9.42188 C8.14063,9.08854 8.04688,8.84896 7.85938,8.70313 C7.58854,8.48438 7.16146,8.30729 6.57813,8.17188 L6.23438,8.09375 C5.72396,7.96875 5.33854,7.80208 5.07813,7.59375 C4.74479,7.32292 4.57813,6.99479 4.57813,6.60938 C4.57813,5.98438 4.77865,5.53385 5.17969,5.25781 C5.58073,4.98177 6.07292,4.84375 6.65625,4.84375 C7.15625,4.84375 7.5,4.86979 7.6875,4.92188 C7.91667,4.98438 8.14063,5.0625 8.35938,5.15625 M10.6094,8.60938 L10.6094,4.98438 L11.0938,4.98438 L11.0938,8.57813 C11.0938,9.35938 11.2188,9.90885 11.4688,10.2266 C11.7188,10.5443 12.0885,10.7031 12.5781,10.7031 C13.151,10.7031 13.6406,10.5313 14.0469,10.1875 C14.4531,9.84375 14.6563,9.24479 14.6563,8.39063 L14.6563,4.98438 L15.1406,4.98438 L15.1406,11 L14.6563,11 L14.6563,9.875 C14.4792,10.2396 14.2448,10.5156 13.9531,10.7031 C13.5365,10.9948 13.0729,11.1406 12.5625,11.1406 C11.9688,11.1406 11.4948,10.9375 11.1406,10.5313 C10.7865,10.1354 10.6094,9.49479 10.6094,8.60938 M21.9688,6.29688 C22.1563,5.80729 22.4479,5.44271 22.8438,5.20313 C23.2292,4.96354 23.6823,4.84375 24.2031,4.84375 C24.724,4.84375 25.1406,5.02604 25.4531,5.39063 C25.776,5.75521 25.9375,6.41667 25.9375,7.375 L25.9375,11 L25.4531,11 L25.4531,7.40625 C25.4531,6.57292 25.3385,6.01042 25.1094,5.71875 C24.8802,5.42708 24.5729,5.28125 24.1875,5.28125 C23.6354,5.28125 23.151,5.44792 22.7344,5.78125 C22.2656,6.15625 22.0313,6.76042 22.0313,7.59375 L22.0313,11 L21.5469,11 L21.5469,7.40625 C21.5469,6.60417 21.4349,6.04948 21.2109,5.74219 C20.987,5.4349 20.6771,5.28125 20.2813,5.28125 C19.7292,5.28125 19.2448,5.45313 18.8281,5.79688 C18.3594,6.16146 18.125,6.76042 18.125,7.59375 L18.125,11 L17.6406,11 L17.6406,4.98438 L18.125,4.98438 L18.125,6.10938 C18.3021,5.71354 18.5781,5.40104 18.9531,5.17188 C19.3177,4.95313 19.7708,4.84375 20.3125,4.84375 C20.6667,4.84375 21.0052,4.95833 21.3281,5.1875 C21.5781,5.375 21.7917,5.74479 21.9688,6.29688 M32.7031,13.1719 L32.7031,13.5938 L26.9844,13.5938 L26.9844,13.1719 L32.7031,13.1719 M38.3906,7.375 L38.3906,11 L37.8906,11 L37.8906,7.40625 C37.8906,6.625 37.7656,6.07552 37.5156,5.75781 C37.2656,5.4401 36.8958,5.28125 36.4063,5.28125 C35.8333,5.28125 35.349,5.45313 34.9531,5.79688 C34.5365,6.14063 34.3281,6.73958 34.3281,7.59375 L34.3281,11 L33.8438,11 L33.8438,4.98438 L34.3281,4.98438 L34.3281,6.10938 C34.5052,5.74479 34.7396,5.46875 35.0313,5.28125 C35.4479,4.98958 35.9115,4.84375 36.4219,4.84375 C37.026,4.84375 37.5052,5.04688 37.8594,5.45313 C38.2135,5.84896 38.3906,6.48958 38.3906,7.375 M45.5,7.75 L45.5,8.0625 L40.9375,8.0625 C40.9375,9.02083 41.125,9.69792 41.5,10.0938 C41.9167,10.5208 42.5313,10.7344 43.3438,10.7344 C43.5625,10.7344 43.849,10.6875 44.2031,10.5938 C44.5573,10.5 44.9115,10.3594 45.2656,10.1719 L45.2656,10.6875 C44.9115,10.8438 44.5495,10.9609 44.1797,11.0391 C43.8099,11.1172 43.5156,11.1563 43.2969,11.1563 C42.3698,11.1563 41.6719,10.9063 41.2031,10.4063 C40.6927,9.875 40.4375,9.09375 40.4375,8.0625 C40.4375,6.98958 40.6667,6.1875 41.125,5.65625 C41.6042,5.11458 42.2708,4.84375 43.125,4.84375 C43.9063,4.84375 44.5,5.10417 44.9063,5.625 C45.3021,6.16667 45.5,6.875 45.5,7.75 M45,7.64063 C45,6.79688 44.8073,6.18229 44.4219,5.79688 C44.1094,5.45313 43.6771,5.28125 43.125,5.28125 C42.5313,5.28125 42.0313,5.45833 41.625,5.8125 C41.25,6.14583 41.026,6.75521 40.9531,7.64063 L45,7.64063 M51.8594,4.98438 L49.6875,7.875 L52.0156,11 L51.4375,11 L49.3906,8.26563 L47.3281,11 L46.7344,11 L49.0938,7.85938 L46.9531,4.98438 L47.5313,4.98438 L49.3906,7.48438 L51.2656,4.98438 L51.8594,4.98438 M54.3906,3.28125 L54.3906,4.98438 L56.4219,4.98438 L56.4219,5.40625 L54.3906,5.40625 L54.3906,9.01563 C54.3906,9.47396 54.4479,9.79688 54.5625,9.98438 C54.8125,10.3802 55.1719,10.5781 55.6406,10.5781 L56.4219,10.5781 L56.4219,11 L55.6563,11 C55.1667,11 54.75,10.8568 54.4063,10.5703 C54.0625,10.2839 53.8906,9.76563 53.8906,9.01563 L53.8906,5.40625 L53.1719,5.40625 L53.1719,4.98438 L53.8906,4.98438 L53.8906,3.28125 L54.3906,3.28125 M62.5469,13.1719 L62.5469,13.5938 L56.8281,13.5938 L56.8281,13.1719 L62.5469,13.1719 M68.2344,7.375 L68.2344,11 L67.7344,11 L67.7344,7.40625 C67.7344,6.625 67.6094,6.07552 67.3594,5.75781 C67.1094,5.4401 66.7396,5.28125 66.25,5.28125 C65.6771,5.28125 65.1927,5.45313 64.7969,5.79688 C64.3802,6.14063 64.1719,6.73958 64.1719,7.59375 L64.1719,11 L63.6875,11 L63.6875,4.98438 L64.1719,4.98438 L64.1719,6.10938 C64.349,5.74479 64.5833,5.46875 64.875,5.28125 C65.2917,4.98958 65.7552,4.84375 66.2656,4.84375 C66.8698,4.84375 67.349,5.04688 67.7031,5.45313 C68.0573,5.84896 68.2344,6.48958 68.2344,7.375 M70.5938,8.60938 L70.5938,4.98438 L71.0781,4.98438 L71.0781,8.57813 C71.0781,9.35938 71.2031,9.90885 71.4531,10.2266 C71.7031,10.5443 72.0729,10.7031 72.5625,10.7031 C73.1354,10.7031 73.625,10.5313 74.0313,10.1875 C74.4375,9.84375 74.6406,9.24479 74.6406,8.39063 L74.6406,4.98438 L75.125,4.98438 L75.125,11 L74.6406,11 L74.6406,9.875 C74.4635,10.2396 74.2292,10.5156 73.9375,10.7031 C73.5208,10.9948 73.0573,11.1406 72.5469,11.1406 C71.9531,11.1406 71.4792,10.9375 71.125,10.5313 C70.7708,10.1354 70.5938,9.49479 70.5938,8.60938 M81.9531,6.29688 C82.1406,5.80729 82.4323,5.44271 82.8281,5.20313 C83.2135,4.96354 83.6667,4.84375 84.1875,4.84375 C84.7083,4.84375 85.125,5.02604 85.4375,5.39063 C85.7604,5.75521 85.9219,6.41667 85.9219,7.375 L85.9219,11 L85.4375,11 L85.4375,7.40625 C85.4375,6.57292 85.3229,6.01042 85.0938,5.71875 C84.8646,5.42708 84.5573,5.28125 84.1719,5.28125 C83.6198,5.28125 83.1354,5.44792 82.7188,5.78125 C82.25,6.15625 82.0156,6.76042 82.0156,7.59375 L82.0156,11 L81.5313,11 L81.5313,7.40625 C81.5313,6.60417 81.4193,6.04948 81.1953,5.74219 C80.9714,5.4349 80.6615,5.28125 80.2656,5.28125 C79.7135,5.28125 79.2292,5.45313 78.8125,5.79688 C78.3438,6.16146 78.1094,6.76042 78.1094,7.59375 L78.1094,11 L77.625,11 L77.625,4.98438 L78.1094,4.98438 L78.1094,6.10938 C78.2865,5.71354 78.5625,5.40104 78.9375,5.17188 C79.3021,4.95313 79.7552,4.84375 80.2969,4.84375 C80.651,4.84375 80.9896,4.95833 81.3125,5.1875 C81.5625,5.375 81.776,5.74479 81.9531,6.29688 M92.0469,10.0938 C92.4635,9.67708 92.6719,8.97917 92.6719,8 C92.6719,7.02083 92.4635,6.32292 92.0469,5.90625 C91.6302,5.48958 91.1927,5.28125 90.7344,5.28125 C90.2865,5.28125 89.8542,5.48958 89.4375,5.90625 C89.0313,6.32292 88.8281,7.02083 88.8281,8 C88.8281,8.97917 89.0313,9.67708 89.4375,10.0938 C89.8542,10.5104 90.2865,10.7188 90.7344,10.7188 C91.1927,10.7188 91.6302,10.5104 92.0469,10.0938 M88.8125,6.35938 C89.0417,5.83854 89.2865,5.47917 89.5469,5.28125 C89.9531,4.98958 90.3385,4.84375 90.7031,4.84375 C91.4115,4.84375 92.0026,5.13281 92.4766,5.71094 C92.9505,6.28906 93.1875,7.05208 93.1875,8 C93.1875,8.94792 92.9505,9.71094 92.4766,10.2891 C92.0026,10.8672 91.4115,11.1563 90.7031,11.1563 C90.3385,11.1563 89.9531,11.0052 89.5469,10.7031 C89.2865,10.5156 89.0417,10.1615 88.8125,9.64063 L88.8125,11 L88.3281,11 L88.3281,2.64063 L88.8125,2.64063 L88.8125,6.35938 M99.9844,7.75 L99.9844,8.0625 L95.4219,8.0625 C95.4219,9.02083 95.6094,9.69792 95.9844,10.0938 C96.401,10.5208 97.0156,10.7344 97.8281,10.7344 C98.0469,10.7344 98.3333,10.6875 98.6875,10.5938 C99.0417,10.5 99.3958,10.3594 99.75,10.1719 L99.75,10.6875 C99.3958,10.8438 99.0339,10.9609 98.6641,11.0391 C98.2943,11.1172 98,11.1563 97.7813,11.1563 C96.8542,11.1563 96.1563,10.9063 95.6875,10.4063 C95.1771,9.875 94.9219,9.09375 94.9219,8.0625 C94.9219,6.98958 95.151,6.1875 95.6094,5.65625 C96.0885,5.11458 96.7552,4.84375 97.6094,4.84375 C98.3906,4.84375 98.9844,5.10417 99.3906,5.625 C99.7865,6.16667 99.9844,6.875 99.9844,7.75 M99.4844,7.64063 C99.4844,6.79688 99.2917,6.18229 98.9063,5.79688 C98.5938,5.45313 98.1615,5.28125 97.6094,5.28125 C97.0156,5.28125 96.5156,5.45833 96.1094,5.8125 C95.7344,6.14583 95.5104,6.75521 95.4375,7.64063 L99.4844,7.64063 M105.328,5.40625 C105.245,5.36458 105.135,5.33333 105,5.3125 C104.875,5.29167 104.724,5.28125 104.547,5.28125 C103.932,5.28125 103.427,5.50521 103.031,5.95313 C102.708,6.31771 102.547,6.94271 102.547,7.82813 L102.547,11 L102.063,11 L102.063,4.98438 L102.547,4.98438 L102.547,6.10938 C102.714,5.78646 102.943,5.51563 103.234,5.29688 C103.63,4.99479 104.099,4.84375 104.641,4.84375 C104.786,4.84375 104.911,4.84896 105.016,4.85938 C105.12,4.85938 105.224,4.86979 105.328,4.89063 L105.328,5.40625 M109.984,5.15625 L109.984,5.70313 C109.63,5.50521 109.411,5.39583 109.328,5.375 C109.078,5.32292 108.766,5.29167 108.391,5.28125 C107.828,5.28125 107.385,5.39063 107.063,5.60938 C106.813,5.79688 106.688,6.11458 106.688,6.5625 C106.688,6.875 106.807,7.11458 107.047,7.28125 C107.286,7.46875 107.635,7.61458 108.094,7.71875 L108.438,7.78125 C109.01,7.90625 109.443,8.08333 109.734,8.3125 C110.078,8.58333 110.255,8.92708 110.266,9.34375 C110.266,9.90625 110.099,10.349 109.766,10.6719 C109.411,10.9948 108.833,11.1563 108.031,11.1563 C107.594,11.1563 107.26,11.125 107.031,11.0625 C106.75,10.9896 106.458,10.8958 106.156,10.7813 L106.156,10.1563 C106.594,10.4063 106.875,10.5521 107,10.5938 C107.354,10.6875 107.708,10.7344 108.063,10.7344 C108.635,10.7344 109.063,10.6146 109.344,10.375 C109.625,10.125 109.766,9.80729 109.766,9.42188 C109.766,9.08854 109.672,8.84896 109.484,8.70313 C109.214,8.48438 108.786,8.30729 108.203,8.17188 L107.859,8.09375 C107.349,7.96875 106.964,7.80208 106.703,7.59375 C106.37,7.32292 106.203,6.99479 106.203,6.60938 C106.203,5.98438 106.404,5.53385 106.805,5.25781 C107.206,4.98177 107.698,4.84375 108.281,4.84375 C108.781,4.84375 109.125,4.86979 109.313,4.92188 C109.542,4.98438 109.766,5.0625 109.984,5.15625 "/>
</g>

<g fill="none" stroke="#000000" stroke-opacity="1" stroke-width="1" stroke-linecap="square" stroke-linejoin="bevel" transform="matrix(1.99977,0,0,1.99977,791.306,129.985)"
font-family="sans" font-size="11" font-weight="100" font-style="normal" 
>
</g>

<g fill="none" stroke="#000000" stroke-opacity="1" stroke-width="1" stroke-linecap="square" stroke-linejoin="bevel" transform="matrix(1.99977,0,0,1.99977,791.306,129.985)"
font-family="Ubuntu" font-size="11" font-weight="400" font-style="normal" 
>
</g>

<g fill="none" stroke="#000000" stroke-opacity="1" stroke-width="1" stroke-linecap="square" stroke-linejoin="bevel" transform="matrix(1.99977,0,0,1.99977,0.00359959,179.979)"
font-family="Ubuntu" font-size="11" font-weight="400" font-style="normal" 
>
</g>

<g fill="none" stroke="#000000" stroke-opacity="1" stroke-width="1" stroke-linecap="square" stroke-linejoin="bevel" transform="matrix(1.99977,0,0,1.99977,0.00359959,179.979)"
font-family="Ubuntu" font-size="11" font-weight="400" font-style="normal" 
>
</g>

<g fill="none" stroke="#000000" stroke-opacity="1" stroke-width="1" stroke-linecap="square" stroke-linejoin="bevel" transform="matrix(1.99977,0,0,1.99977,0.00359959,179.979)"
font-family="Ubuntu" font-size="11" font-weight="400" font-style="normal" 
>
</g>

<g fill="none" stroke="#000000" stroke-opacity="1" stroke-width="1" stroke-linecap="square" stroke-linejoin="round" transform="matrix(1.99977,0,0,1.99977,0.00359959,179.979)"
font-family="Ubuntu" font-size="11" font-weight="400" font-style="normal" 
>
<ellipse cx="99.441" cy="-72" rx="98.9428" ry="17.5"/>
</g>

<g fill="none" stroke="#000000" stroke-opacity="1" stroke-width="1" stroke-linecap="square" stroke-linejoin="bevel" transform="matrix(1.99977,0,0,1.99977,0.00359959,179.979)"
font-family="Ubuntu" font-size="11" font-weight="400" font-style="normal" 
>
</g>

<g fill="none" stroke="#000000" stroke-opacity="1" stroke-width="1" stroke-linecap="square" stroke-linejoin="bevel" transform="matrix(1.99977,0,0,1.99977,94.4529,21.9975)"
font-family="Ubuntu" font-size="11" font-weight="400" font-style="normal" 
>
</g>

<g fill="none" stroke="#000000" stroke-opacity="1" stroke-width="1" stroke-linecap="square" stroke-linejoin="bevel" transform="matrix(1.99977,0,0,1.99977,94.4529,21.9975)"
font-family="sans" font-size="11" font-weight="100" font-style="normal" 
>
</g>

<g fill="#000000" fill-opacity="1" stroke="#000000" stroke-opacity="1" stroke-width="1" stroke-linecap="square" stroke-linejoin="round" transform="matrix(1.99977,0,0,1.99977,94.4529,21.9975)"
font-family="sans" font-size="11" font-weight="100" font-style="normal" 
>
<path vector-effect="none" fill-rule="nonzero" d="M2.96875,2.98438 L3.53125,2.98438 L0.734375,12.0156 L0.171875,12.0156 L2.96875,2.98438 M9.28125,6.29688 C9.46875,5.80729 9.76042,5.44271 10.1563,5.20313 C10.5417,4.96354 10.9948,4.84375 11.5156,4.84375 C12.0365,4.84375 12.4531,5.02604 12.7656,5.39063 C13.0885,5.75521 13.25,6.41667 13.25,7.375 L13.25,11 L12.7656,11 L12.7656,7.40625 C12.7656,6.57292 12.651,6.01042 12.4219,5.71875 C12.1927,5.42708 11.8854,5.28125 11.5,5.28125 C10.9479,5.28125 10.4635,5.44792 10.0469,5.78125 C9.57813,6.15625 9.34375,6.76042 9.34375,7.59375 L9.34375,11 L8.85938,11 L8.85938,7.40625 C8.85938,6.60417 8.7474,6.04948 8.52344,5.74219 C8.29948,5.4349 7.98958,5.28125 7.59375,5.28125 C7.04167,5.28125 6.55729,5.45313 6.14063,5.79688 C5.67188,6.16146 5.4375,6.76042 5.4375,7.59375 L5.4375,11 L4.95313,11 L4.95313,4.98438 L5.4375,4.98438 L5.4375,6.10938 C5.61458,5.71354 5.89063,5.40104 6.26563,5.17188 C6.63021,4.95313 7.08333,4.84375 7.625,4.84375 C7.97917,4.84375 8.31771,4.95833 8.64063,5.1875 C8.89063,5.375 9.10417,5.74479 9.28125,6.29688 M15.6406,4.98438 L16.1406,4.98438 L16.1406,11 L15.6406,11 L15.6406,4.98438 M15.6406,2.64063 L16.1406,2.64063 L16.1406,3.3125 L15.6406,3.3125 L15.6406,2.64063 M23.25,7.375 L23.25,11 L22.75,11 L22.75,7.40625 C22.75,6.625 22.625,6.07552 22.375,5.75781 C22.125,5.4401 21.7552,5.28125 21.2656,5.28125 C20.6927,5.28125 20.2083,5.45313 19.8125,5.79688 C19.3958,6.14063 19.1875,6.73958 19.1875,7.59375 L19.1875,11 L18.7031,11 L18.7031,4.98438 L19.1875,4.98438 L19.1875,6.10938 C19.3646,5.74479 19.599,5.46875 19.8906,5.28125 C20.3073,4.98958 20.7708,4.84375 21.2813,4.84375 C21.8854,4.84375 22.3646,5.04688 22.7188,5.45313 C23.0729,5.84896 23.25,6.48958 23.25,7.375 M25.6563,4.98438 L26.1563,4.98438 L26.1563,11 L25.6563,11 L25.6563,4.98438 M25.6563,2.64063 L26.1563,2.64063 L26.1563,3.3125 L25.6563,3.3125 L25.6563,2.64063 M33.0469,6.29688 C33.2344,5.80729 33.526,5.44271 33.9219,5.20313 C34.3073,4.96354 34.7604,4.84375 35.2813,4.84375 C35.8021,4.84375 36.2188,5.02604 36.5313,5.39063 C36.8542,5.75521 37.0156,6.41667 37.0156,7.375 L37.0156,11 L36.5313,11 L36.5313,7.40625 C36.5313,6.57292 36.4167,6.01042 36.1875,5.71875 C35.9583,5.42708 35.651,5.28125 35.2656,5.28125 C34.7135,5.28125 34.2292,5.44792 33.8125,5.78125 C33.3438,6.15625 33.1094,6.76042 33.1094,7.59375 L33.1094,11 L32.625,11 L32.625,7.40625 C32.625,6.60417 32.513,6.04948 32.2891,5.74219 C32.0651,5.4349 31.7552,5.28125 31.3594,5.28125 C30.8073,5.28125 30.3229,5.45313 29.9063,5.79688 C29.4375,6.16146 29.2031,6.76042 29.2031,7.59375 L29.2031,11 L28.7188,11 L28.7188,4.98438 L29.2031,4.98438 L29.2031,6.10938 C29.3802,5.71354 29.6563,5.40104 30.0313,5.17188 C30.3958,4.95313 30.849,4.84375 31.3906,4.84375 C31.7448,4.84375 32.0833,4.95833 32.4063,5.1875 C32.6563,5.375 32.8698,5.74479 33.0469,6.29688 M41.8281,7.60938 C41.026,7.60938 40.4505,7.75 40.1016,8.03125 C39.7526,8.3125 39.5781,8.72396 39.5781,9.26563 C39.5781,9.79688 39.724,10.1745 40.0156,10.3984 C40.3073,10.6224 40.651,10.7344 41.0469,10.7344 C41.7969,10.7344 42.3385,10.4167 42.6719,9.78125 C43.0052,9.13542 43.1719,8.53125 43.1719,7.96875 L43.1719,7.60938 L41.8281,7.60938 M43.6719,7.5625 L43.6719,11 L43.1719,11 L43.1719,9.35938 C42.901,10.1615 42.5365,10.6719 42.0781,10.8906 C41.724,11.0677 41.3646,11.1563 41,11.1563 C40.4063,11.1563 39.9375,10.9948 39.5938,10.6719 C39.25,10.349 39.0781,9.8776 39.0781,9.25781 C39.0781,8.63802 39.3021,8.14063 39.75,7.76563 C40.1979,7.39063 40.9271,7.20313 41.9375,7.20313 L43.1719,7.20313 L43.1719,7.10938 C43.1719,6.57813 43.0156,6.14063 42.7031,5.79688 C42.4115,5.45313 41.9167,5.28125 41.2188,5.28125 C40.875,5.28125 40.526,5.34375 40.1719,5.46875 C39.9427,5.55208 39.6406,5.71875 39.2656,5.96875 L39.2656,5.4375 C39.5885,5.23958 39.8906,5.09896 40.1719,5.01563 C40.5677,4.90104 40.9479,4.84375 41.3125,4.84375 C42.0313,4.84375 42.6198,5.05729 43.0781,5.48438 C43.474,5.84896 43.6719,6.54167 43.6719,7.5625 M46.1563,2.64063 L46.6406,2.64063 L46.6406,11 L46.1563,11 L46.1563,2.64063 M53.5625,13.1719 L53.5625,13.5938 L47.8438,13.5938 L47.8438,13.1719 L53.5625,13.1719 M55.1875,9.64063 L55.1875,13.2813 L54.7031,13.2813 L54.7031,4.98438 L55.1875,4.98438 L55.1875,6.35938 C55.4167,5.83854 55.6615,5.47917 55.9219,5.28125 C56.3281,4.98958 56.7135,4.84375 57.0781,4.84375 C57.7865,4.84375 58.3776,5.13281 58.8516,5.71094 C59.3255,6.28906 59.5625,7.05208 59.5625,8 C59.5625,8.94792 59.3255,9.71094 58.8516,10.2891 C58.3776,10.8672 57.7865,11.1563 57.0781,11.1563 C56.7135,11.1563 56.3281,11.0052 55.9219,10.7031 C55.6615,10.5156 55.4167,10.1615 55.1875,9.64063 M58.4219,10.0938 C58.8385,9.67708 59.0469,8.97917 59.0469,8 C59.0469,7.02083 58.8385,6.32292 58.4219,5.90625 C58.0052,5.48958 57.5677,5.28125 57.1094,5.28125 C56.6615,5.28125 56.2292,5.48958 55.8125,5.90625 C55.4063,6.32292 55.2031,7.02083 55.2031,8 C55.2031,8.97917 55.4063,9.67708 55.8125,10.0938 C56.2292,10.5104 56.6615,10.7188 57.1094,10.7188 C57.5677,10.7188 58.0052,10.5104 58.4219,10.0938 M61.6094,8.60938 L61.6094,4.98438 L62.0938,4.98438 L62.0938,8.57813 C62.0938,9.35938 62.2188,9.90885 62.4688,10.2266 C62.7188,10.5443 63.0885,10.7031 63.5781,10.7031 C64.151,10.7031 64.6406,10.5313 65.0469,10.1875 C65.4531,9.84375 65.6563,9.24479 65.6563,8.39063 L65.6563,4.98438 L66.1406,4.98438 L66.1406,11 L65.6563,11 L65.6563,9.875 C65.4792,10.2396 65.2448,10.5156 64.9531,10.7031 C64.5365,10.9948 64.0729,11.1406 63.5625,11.1406 C62.9688,11.1406 62.4948,10.9375 62.1406,10.5313 C61.7865,10.1354 61.6094,9.49479 61.6094,8.60938 M72.3594,10.0938 C72.776,9.67708 72.9844,8.97917 72.9844,8 C72.9844,7.02083 72.776,6.32292 72.3594,5.90625 C71.9427,5.48958 71.5052,5.28125 71.0469,5.28125 C70.599,5.28125 70.1667,5.48958 69.75,5.90625 C69.3438,6.32292 69.1406,7.02083 69.1406,8 C69.1406,8.97917 69.3438,9.67708 69.75,10.0938 C70.1667,10.5104 70.599,10.7188 71.0469,10.7188 C71.5052,10.7188 71.9427,10.5104 72.3594,10.0938 M69.125,6.35938 C69.3542,5.83854 69.599,5.47917 69.8594,5.28125 C70.2656,4.98958 70.651,4.84375 71.0156,4.84375 C71.724,4.84375 72.3151,5.13281 72.7891,5.71094 C73.263,6.28906 73.5,7.05208 73.5,8 C73.5,8.94792 73.263,9.71094 72.7891,10.2891 C72.3151,10.8672 71.724,11.1563 71.0156,11.1563 C70.651,11.1563 70.2656,11.0052 69.8594,10.7031 C69.599,10.5156 69.3542,10.1615 69.125,9.64063 L69.125,11 L68.6406,11 L68.6406,2.64063 L69.125,2.64063 L69.125,6.35938 M75.6094,2.64063 L76.0938,2.64063 L76.0938,11 L75.6094,11 L75.6094,2.64063 M78.6406,4.98438 L79.1406,4.98438 L79.1406,11 L78.6406,11 L78.6406,4.98438 M78.6406,2.64063 L79.1406,2.64063 L79.1406,3.3125 L78.6406,3.3125 L78.6406,2.64063 M85.1094,5.15625 L85.1094,5.70313 C84.7552,5.50521 84.5365,5.39583 84.4531,5.375 C84.2031,5.32292 83.8906,5.29167 83.5156,5.28125 C82.9531,5.28125 82.5104,5.39063 82.1875,5.60938 C81.9375,5.79688 81.8125,6.11458 81.8125,6.5625 C81.8125,6.875 81.9323,7.11458 82.1719,7.28125 C82.4115,7.46875 82.7604,7.61458 83.2188,7.71875 L83.5625,7.78125 C84.1354,7.90625 84.5677,8.08333 84.8594,8.3125 C85.2031,8.58333 85.3802,8.92708 85.3906,9.34375 C85.3906,9.90625 85.224,10.349 84.8906,10.6719 C84.5365,10.9948 83.9583,11.1563 83.1563,11.1563 C82.7188,11.1563 82.3854,11.125 82.1563,11.0625 C81.875,10.9896 81.5833,10.8958 81.2813,10.7813 L81.2813,10.1563 C81.7188,10.4063 82,10.5521 82.125,10.5938 C82.4792,10.6875 82.8333,10.7344 83.1875,10.7344 C83.7604,10.7344 84.1875,10.6146 84.4688,10.375 C84.75,10.125 84.8906,9.80729 84.8906,9.42188 C84.8906,9.08854 84.7969,8.84896 84.6094,8.70313 C84.3385,8.48438 83.9115,8.30729 83.3281,8.17188 L82.9844,8.09375 C82.474,7.96875 82.0885,7.80208 81.8281,7.59375 C81.4948,7.32292 81.3281,6.99479 81.3281,6.60938 C81.3281,5.98438 81.5286,5.53385 81.9297,5.25781 C82.3307,4.98177 82.8229,4.84375 83.4063,4.84375 C83.9063,4.84375 84.25,4.86979 84.4375,4.92188 C84.6667,4.98438 84.8906,5.0625 85.1094,5.15625 M91.9688,7.375 L91.9688,11 L91.4688,11 L91.4688,7.40625 C91.4688,6.625 91.3385,6.07552 91.0781,5.75781 C90.8177,5.4401 90.4219,5.28125 89.8906,5.28125 C89.276,5.28125 88.7917,5.45833 88.4375,5.8125 C88.0833,6.16667 87.9063,6.76042 87.9063,7.59375 L87.9063,11 L87.4219,11 L87.4219,2.64063 L87.9063,2.64063 L87.9063,6.09375 C88.0208,5.79167 88.2292,5.52083 88.5313,5.28125 C88.875,4.98958 89.3646,4.84375 90,4.84375 C90.6042,4.84375 91.0833,5.05729 91.4375,5.48438 C91.7917,5.91146 91.9688,6.54167 91.9688,7.375 M99.0781,7.75 L99.0781,8.0625 L94.5156,8.0625 C94.5156,9.02083 94.7031,9.69792 95.0781,10.0938 C95.4948,10.5208 96.1094,10.7344 96.9219,10.7344 C97.1406,10.7344 97.4271,10.6875 97.7813,10.5938 C98.1354,10.5 98.4896,10.3594 98.8438,10.1719 L98.8438,10.6875 C98.4896,10.8438 98.1276,10.9609 97.7578,11.0391 C97.388,11.1172 97.0938,11.1563 96.875,11.1563 C95.9479,11.1563 95.25,10.9063 94.7813,10.4063 C94.2708,9.875 94.0156,9.09375 94.0156,8.0625 C94.0156,6.98958 94.2448,6.1875 94.7031,5.65625 C95.1823,5.11458 95.849,4.84375 96.7031,4.84375 C97.4844,4.84375 98.0781,5.10417 98.4844,5.625 C98.8802,6.16667 99.0781,6.875 99.0781,7.75 M98.5781,7.64063 C98.5781,6.79688 98.3854,6.18229 98,5.79688 C97.6875,5.45313 97.2552,5.28125 96.7031,5.28125 C96.1094,5.28125 95.6094,5.45833 95.2031,5.8125 C94.8281,6.14583 94.6042,6.75521 94.5313,7.64063 L98.5781,7.64063 M104.422,5.40625 C104.339,5.36458 104.229,5.33333 104.094,5.3125 C103.969,5.29167 103.818,5.28125 103.641,5.28125 C103.026,5.28125 102.521,5.50521 102.125,5.95313 C101.802,6.31771 101.641,6.94271 101.641,7.82813 L101.641,11 L101.156,11 L101.156,4.98438 L101.641,4.98438 L101.641,6.10938 C101.807,5.78646 102.036,5.51563 102.328,5.29688 C102.724,4.99479 103.193,4.84375 103.734,4.84375 C103.88,4.84375 104.005,4.84896 104.109,4.85938 C104.214,4.85938 104.318,4.86979 104.422,4.89063 L104.422,5.40625"/>
</g>

<g fill="none" stroke="#000000" stroke-opacity="1" stroke-width="1" stroke-linecap="square" stroke-linejoin="bevel" transform="matrix(1.99977,0,0,1.99977,94.4529,21.9975)"
font-family="sans" font-size="11" font-weight="100" font-style="normal" 
>
</g>

<g fill="none" stroke="#000000" stroke-opacity="1" stroke-width="1" stroke-linecap="square" stroke-linejoin="bevel" transform="matrix(1.99977,0,0,1.99977,94.4529,21.9975)"
font-family="Ubuntu" font-size="11" font-weight="400" font-style="normal" 
>
</g>

<g fill="none" stroke="#000000" stroke-opacity="1" stroke-width="1" stroke-linecap="square" stroke-linejoin="bevel" transform="matrix(1.99977,0,0,1.99977,0.00359959,179.979)"
font-family="Ubuntu" font-size="11" font-weight="400" font-style="normal" 
>
</g>

<g fill="none" stroke="#000000" stroke-opacity="1" stroke-width="1" stroke-linecap="square" stroke-linejoin="bevel" transform="matrix(1.99977,0,0,1.99977,0.00359959,179.979)"
font-family="Ubuntu" font-size="11" font-weight="400" font-style="normal" 
>
</g>

<g fill="none" stroke="#000000" stroke-opacity="1" stroke-width="1" stroke-linecap="square" stroke-linejoin="bevel" transform="matrix(1.99977,0,0,1.99977,0.00359959,179.979)"
font-family="Ubuntu" font-size="11" font-weight="400" font-style="normal" 
>
</g>

<g fill="none" stroke="#000000" stroke-opacity="1" stroke-width="1" stroke-linecap="square" stroke-linejoin="round" transform="matrix(1.99977,0,0,1.99977,0.00359959,179.979)"
font-family="Ubuntu" font-size="11" font-weight="400" font-style="normal" 
>
<path vector-effect="none" fill-rule="evenodd" d="M196.48,-18 C240.1,-18 292,-18 337.46,-18 "/>
</g>

<g fill="none" stroke="#000000" stroke-opacity="1" stroke-width="1" stroke-linecap="square" stroke-linejoin="bevel" transform="matrix(1.99977,0,0,1.99977,0.00359959,179.979)"
font-family="Ubuntu" font-size="11" font-weight="400" font-style="normal" 
>
</g>

<g fill="none" stroke="#000000" stroke-opacity="1" stroke-width="1" stroke-linecap="square" stroke-linejoin="bevel" transform="matrix(1.99977,0,0,1.99977,445.041,114.987)"
font-family="Ubuntu" font-size="11" font-weight="400" font-style="normal" 
>
</g>

<g fill="none" stroke="#000000" stroke-opacity="1" stroke-width="1" stroke-linecap="square" stroke-linejoin="bevel" transform="matrix(1.99977,0,0,1.99977,445.041,114.987)"
font-family="sans" font-size="11" font-weight="100" font-style="normal" 
>
</g>

<g fill="#000000" fill-opacity="1" stroke="#000000" stroke-opacity="1" stroke-width="1" stroke-linecap="square" stroke-linejoin="round" transform="matrix(1.99977,0,0,1.99977,445.041,114.987)"
font-family="sans" font-size="11" font-weight="100" font-style="normal" 
>
<path vector-effect="none" fill-rule="nonzero" d="M2.96875,2.98438 L3.53125,2.98438 L0.734375,12.0156 L0.171875,12.0156 L2.96875,2.98438 M8.21875,5.40625 C8.13542,5.36458 8.02604,5.33333 7.89063,5.3125 C7.76563,5.29167 7.61458,5.28125 7.4375,5.28125 C6.82292,5.28125 6.31771,5.50521 5.92188,5.95313 C5.59896,6.31771 5.4375,6.94271 5.4375,7.82813 L5.4375,11 L4.95313,11 L4.95313,4.98438 L5.4375,4.98438 L5.4375,6.10938 C5.60417,5.78646 5.83333,5.51563 6.125,5.29688 C6.52083,4.99479 6.98958,4.84375 7.53125,4.84375 C7.67708,4.84375 7.80208,4.84896 7.90625,4.85938 C8.01042,4.85938 8.11458,4.86979 8.21875,4.89063 L8.21875,5.40625 M11.875,7.60938 C11.0729,7.60938 10.4974,7.75 10.1484,8.03125 C9.79948,8.3125 9.625,8.72396 9.625,9.26563 C9.625,9.79688 9.77083,10.1745 10.0625,10.3984 C10.3542,10.6224 10.6979,10.7344 11.0938,10.7344 C11.8438,10.7344 12.3854,10.4167 12.7188,9.78125 C13.0521,9.13542 13.2188,8.53125 13.2188,7.96875 L13.2188,7.60938 L11.875,7.60938 M13.7188,7.5625 L13.7188,11 L13.2188,11 L13.2188,9.35938 C12.9479,10.1615 12.5833,10.6719 12.125,10.8906 C11.7708,11.0677 11.4115,11.1563 11.0469,11.1563 C10.4531,11.1563 9.98438,10.9948 9.64063,10.6719 C9.29688,10.349 9.125,9.8776 9.125,9.25781 C9.125,8.63802 9.34896,8.14063 9.79688,7.76563 C10.2448,7.39063 10.974,7.20313 11.9844,7.20313 L13.2188,7.20313 L13.2188,7.10938 C13.2188,6.57813 13.0625,6.14063 12.75,5.79688 C12.4583,5.45313 11.9635,5.28125 11.2656,5.28125 C10.9219,5.28125 10.5729,5.34375 10.2188,5.46875 C9.98958,5.55208 9.6875,5.71875 9.3125,5.96875 L9.3125,5.4375 C9.63542,5.23958 9.9375,5.09896 10.2188,5.01563 C10.6146,4.90104 10.9948,4.84375 11.3594,4.84375 C12.0781,4.84375 12.6667,5.05729 13.125,5.48438 C13.5208,5.84896 13.7188,6.54167 13.7188,7.5625 M20.75,7.375 L20.75,11 L20.25,11 L20.25,7.40625 C20.25,6.625 20.125,6.07552 19.875,5.75781 C19.625,5.4401 19.2552,5.28125 18.7656,5.28125 C18.1927,5.28125 17.7083,5.45313 17.3125,5.79688 C16.8958,6.14063 16.6875,6.73958 16.6875,7.59375 L16.6875,11 L16.2031,11 L16.2031,4.98438 L16.6875,4.98438 L16.6875,6.10938 C16.8646,5.74479 17.099,5.46875 17.3906,5.28125 C17.8073,4.98958 18.2708,4.84375 18.7813,4.84375 C19.3854,4.84375 19.8646,5.04688 20.2188,5.45313 C20.5729,5.84896 20.75,6.48958 20.75,7.375 M27.1719,6.35938 L27.1719,2.64063 L27.6406,2.64063 L27.6406,11 L27.1719,11 L27.1719,9.64063 C26.9427,10.1615 26.6927,10.5156 26.4219,10.7031 C26.026,11.0052 25.6458,11.1563 25.2813,11.1563 C24.5729,11.1563 23.9818,10.8672 23.5078,10.2891 C23.0339,9.71094 22.7969,8.94792 22.7969,8 C22.7969,7.05208 23.0339,6.28906 23.5078,5.71094 C23.9818,5.13281 24.5729,4.84375 25.2813,4.84375 C25.6458,4.84375 26.026,4.98958 26.4219,5.28125 C26.6927,5.47917 26.9427,5.83854 27.1719,6.35938 M23.9375,5.90625 C23.5208,6.32292 23.3125,7.02083 23.3125,8 C23.3125,8.97917 23.5208,9.67708 23.9375,10.0938 C24.3542,10.5104 24.7917,10.7188 25.25,10.7188 C25.6979,10.7188 26.1302,10.5104 26.5469,10.0938 C26.9531,9.67708 27.1563,8.97917 27.1563,8 C27.1563,7.02083 26.9531,6.32292 26.5469,5.90625 C26.1302,5.48958 25.6979,5.28125 25.25,5.28125 C24.7917,5.28125 24.3542,5.48958 23.9375,5.90625 M33.7188,6.01563 C33.3646,5.52604 32.8802,5.28125 32.2656,5.28125 C31.651,5.28125 31.1667,5.52604 30.8125,6.01563 C30.4583,6.49479 30.2813,7.15104 30.2813,7.98438 C30.2813,8.83854 30.4583,9.51042 30.8125,10 C31.1667,10.4896 31.651,10.7344 32.2656,10.7344 C32.8802,10.7344 33.3646,10.4896 33.7188,10 C34.0729,9.5 34.25,8.82813 34.25,7.98438 C34.25,7.16146 34.0729,6.50521 33.7188,6.01563 M32.2656,4.84375 C33.026,4.84375 33.6302,5.13021 34.0781,5.70313 C34.526,6.27604 34.75,7.03646 34.75,7.98438 C34.75,8.97396 34.526,9.75521 34.0781,10.3281 C33.6302,10.901 33.026,11.1875 32.2656,11.1875 C31.4844,11.1875 30.8698,10.901 30.4219,10.3281 C29.9844,9.75521 29.7656,8.97396 29.7656,7.98438 C29.7656,7.02604 29.9896,6.26302 30.4375,5.69531 C30.8854,5.1276 31.4948,4.84375 32.2656,4.84375 M41.1875,6.29688 C41.375,5.80729 41.6667,5.44271 42.0625,5.20313 C42.4479,4.96354 42.901,4.84375 43.4219,4.84375 C43.9427,4.84375 44.3594,5.02604 44.6719,5.39063 C44.9948,5.75521 45.1563,6.41667 45.1563,7.375 L45.1563,11 L44.6719,11 L44.6719,7.40625 C44.6719,6.57292 44.5573,6.01042 44.3281,5.71875 C44.099,5.42708 43.7917,5.28125 43.4063,5.28125 C42.8542,5.28125 42.3698,5.44792 41.9531,5.78125 C41.4844,6.15625 41.25,6.76042 41.25,7.59375 L41.25,11 L40.7656,11 L40.7656,7.40625 C40.7656,6.60417 40.6536,6.04948 40.4297,5.74219 C40.2057,5.4349 39.8958,5.28125 39.5,5.28125 C38.9479,5.28125 38.4635,5.45313 38.0469,5.79688 C37.5781,6.16146 37.3438,6.76042 37.3438,7.59375 L37.3438,11 L36.8594,11 L36.8594,4.98438 L37.3438,4.98438 L37.3438,6.10938 C37.5208,5.71354 37.7969,5.40104 38.1719,5.17188 C38.5365,4.95313 38.9896,4.84375 39.5313,4.84375 C39.8854,4.84375 40.224,4.95833 40.5469,5.1875 C40.7969,5.375 41.0104,5.74479 41.1875,6.29688 M51.9219,13.1719 L51.9219,13.5938 L46.2031,13.5938 L46.2031,13.1719 L51.9219,13.1719 M53.1406,2.98438 L53.9375,2.98438 L57.8281,10.3125 L57.8281,2.98438 L58.3594,2.98438 L58.3594,11 L57.6094,11 L53.6875,3.625 L53.6875,11 L53.1406,11 L53.1406,2.98438 M61.2188,8.60938 L61.2188,4.98438 L61.7031,4.98438 L61.7031,8.57813 C61.7031,9.35938 61.8281,9.90885 62.0781,10.2266 C62.3281,10.5443 62.6979,10.7031 63.1875,10.7031 C63.7604,10.7031 64.25,10.5313 64.6563,10.1875 C65.0625,9.84375 65.2656,9.24479 65.2656,8.39063 L65.2656,4.98438 L65.75,4.98438 L65.75,11 L65.2656,11 L65.2656,9.875 C65.0885,10.2396 64.8542,10.5156 64.5625,10.7031 C64.1458,10.9948 63.6823,11.1406 63.1719,11.1406 C62.5781,11.1406 62.1042,10.9375 61.75,10.5313 C61.3958,10.1354 61.2188,9.49479 61.2188,8.60938 M72.5781,6.29688 C72.7656,5.80729 73.0573,5.44271 73.4531,5.20313 C73.8385,4.96354 74.2917,4.84375 74.8125,4.84375 C75.3333,4.84375 75.75,5.02604 76.0625,5.39063 C76.3854,5.75521 76.5469,6.41667 76.5469,7.375 L76.5469,11 L76.0625,11 L76.0625,7.40625 C76.0625,6.57292 75.9479,6.01042 75.7188,5.71875 C75.4896,5.42708 75.1823,5.28125 74.7969,5.28125 C74.2448,5.28125 73.7604,5.44792 73.3438,5.78125 C72.875,6.15625 72.6406,6.76042 72.6406,7.59375 L72.6406,11 L72.1563,11 L72.1563,7.40625 C72.1563,6.60417 72.0443,6.04948 71.8203,5.74219 C71.5964,5.4349 71.2865,5.28125 70.8906,5.28125 C70.3385,5.28125 69.8542,5.45313 69.4375,5.79688 C68.9688,6.16146 68.7344,6.76042 68.7344,7.59375 L68.7344,11 L68.25,11 L68.25,4.98438 L68.7344,4.98438 L68.7344,6.10938 C68.9115,5.71354 69.1875,5.40104 69.5625,5.17188 C69.9271,4.95313 70.3802,4.84375 70.9219,4.84375 C71.276,4.84375 71.6146,4.95833 71.9375,5.1875 C72.1875,5.375 72.401,5.74479 72.5781,6.29688 M82.6719,10.0938 C83.0885,9.67708 83.2969,8.97917 83.2969,8 C83.2969,7.02083 83.0885,6.32292 82.6719,5.90625 C82.2552,5.48958 81.8177,5.28125 81.3594,5.28125 C80.9115,5.28125 80.4792,5.48958 80.0625,5.90625 C79.6563,6.32292 79.4531,7.02083 79.4531,8 C79.4531,8.97917 79.6563,9.67708 80.0625,10.0938 C80.4792,10.5104 80.9115,10.7188 81.3594,10.7188 C81.8177,10.7188 82.2552,10.5104 82.6719,10.0938 M79.4375,6.35938 C79.6667,5.83854 79.9115,5.47917 80.1719,5.28125 C80.5781,4.98958 80.9635,4.84375 81.3281,4.84375 C82.0365,4.84375 82.6276,5.13281 83.1016,5.71094 C83.5755,6.28906 83.8125,7.05208 83.8125,8 C83.8125,8.94792 83.5755,9.71094 83.1016,10.2891 C82.6276,10.8672 82.0365,11.1563 81.3281,11.1563 C80.9635,11.1563 80.5781,11.0052 80.1719,10.7031 C79.9115,10.5156 79.6667,10.1615 79.4375,9.64063 L79.4375,11 L78.9531,11 L78.9531,2.64063 L79.4375,2.64063 L79.4375,6.35938 M90.6094,7.75 L90.6094,8.0625 L86.0469,8.0625 C86.0469,9.02083 86.2344,9.69792 86.6094,10.0938 C87.026,10.5208 87.6406,10.7344 88.4531,10.7344 C88.6719,10.7344 88.9583,10.6875 89.3125,10.5938 C89.6667,10.5 90.0208,10.3594 90.375,10.1719 L90.375,10.6875 C90.0208,10.8438 89.6589,10.9609 89.2891,11.0391 C88.9193,11.1172 88.625,11.1563 88.4063,11.1563 C87.4792,11.1563 86.7813,10.9063 86.3125,10.4063 C85.8021,9.875 85.5469,9.09375 85.5469,8.0625 C85.5469,6.98958 85.776,6.1875 86.2344,5.65625 C86.7135,5.11458 87.3802,4.84375 88.2344,4.84375 C89.0156,4.84375 89.6094,5.10417 90.0156,5.625 C90.4115,6.16667 90.6094,6.875 90.6094,7.75 M90.1094,7.64063 C90.1094,6.79688 89.9167,6.18229 89.5313,5.79688 C89.2188,5.45313 88.7865,5.28125 88.2344,5.28125 C87.6406,5.28125 87.1406,5.45833 86.7344,5.8125 C86.3594,6.14583 86.1354,6.75521 86.0625,7.64063 L90.1094,7.64063 M95.9531,5.40625 C95.8698,5.36458 95.7604,5.33333 95.625,5.3125 C95.5,5.29167 95.349,5.28125 95.1719,5.28125 C94.5573,5.28125 94.0521,5.50521 93.6563,5.95313 C93.3333,6.31771 93.1719,6.94271 93.1719,7.82813 L93.1719,11 L92.6875,11 L92.6875,4.98438 L93.1719,4.98438 L93.1719,6.10938 C93.3385,5.78646 93.5677,5.51563 93.8594,5.29688 C94.2552,4.99479 94.724,4.84375 95.2656,4.84375 C95.4115,4.84375 95.5365,4.84896 95.6406,4.85938 C95.7448,4.85938 95.849,4.86979 95.9531,4.89063 L95.9531,5.40625 M100.609,5.15625 L100.609,5.70313 C100.255,5.50521 100.036,5.39583 99.9531,5.375 C99.7031,5.32292 99.3906,5.29167 99.0156,5.28125 C98.4531,5.28125 98.0104,5.39063 97.6875,5.60938 C97.4375,5.79688 97.3125,6.11458 97.3125,6.5625 C97.3125,6.875 97.4323,7.11458 97.6719,7.28125 C97.9115,7.46875 98.2604,7.61458 98.7188,7.71875 L99.0625,7.78125 C99.6354,7.90625 100.068,8.08333 100.359,8.3125 C100.703,8.58333 100.88,8.92708 100.891,9.34375 C100.891,9.90625 100.724,10.349 100.391,10.6719 C100.036,10.9948 99.4583,11.1563 98.6563,11.1563 C98.2188,11.1563 97.8854,11.125 97.6563,11.0625 C97.375,10.9896 97.0833,10.8958 96.7813,10.7813 L96.7813,10.1563 C97.2188,10.4063 97.5,10.5521 97.625,10.5938 C97.9792,10.6875 98.3333,10.7344 98.6875,10.7344 C99.2604,10.7344 99.6875,10.6146 99.9688,10.375 C100.25,10.125 100.391,9.80729 100.391,9.42188 C100.391,9.08854 100.297,8.84896 100.109,8.70313 C99.8385,8.48438 99.4115,8.30729 98.8281,8.17188 L98.4844,8.09375 C97.974,7.96875 97.5885,7.80208 97.3281,7.59375 C96.9948,7.32292 96.8281,6.99479 96.8281,6.60938 C96.8281,5.98438 97.0286,5.53385 97.4297,5.25781 C97.8307,4.98177 98.3229,4.84375 98.9063,4.84375 C99.4063,4.84375 99.75,4.86979 99.9375,4.92188 C100.167,4.98438 100.391,5.0625 100.609,5.15625 "/>
</g>

<g fill="none" stroke="#000000" stroke-opacity="1" stroke-width="1" stroke-linecap="square" stroke-linejoin="bevel" transform="matrix(1.99977,0,0,1.99977,445.041,114.987)"
font-family="sans" font-size="11" font-weight="100" font-style="normal" 
>
</g>

<g fill="none" stroke="#000000" stroke-opacity="1" stroke-width="1" stroke-linecap="square" stroke-linejoin="bevel" transform="matrix(1.99977,0,0,1.99977,445.041,114.987)"
font-family="Ubuntu" font-size="11" font-weight="400" font-style="normal" 
>
</g>

<g fill="none" stroke="#000000" stroke-opacity="1" stroke-width="1" stroke-linecap="square" stroke-linejoin="bevel" transform="matrix(1.99977,0,0,1.99977,0.00359959,179.979)"
font-family="Ubuntu" font-size="11" font-weight="400" font-style="normal" 
>
</g>

<g fill="#000000" fill-opacity="1" stroke="#000000" stroke-opacity="1" stroke-width="1" stroke-linecap="square" stroke-linejoin="round" transform="matrix(1.99977,0,0,1.99977,0.00359959,179.979)"
font-family="Ubuntu" font-size="11" font-weight="400" font-style="normal" 
>
<path vector-effect="none" fill-rule="evenodd" d="M337.46,-18 L337.46,-14.43 L347.66,-18 L337.46,-21.57 L337.46,-18"/>
</g>

<g fill="none" stroke="#000000" stroke-opacity="1" stroke-width="1" stroke-linecap="square" stroke-linejoin="bevel" transform="matrix(1.99977,0,0,1.99977,0.00359959,179.979)"
font-family="Ubuntu" font-size="11" font-weight="400" font-style="normal" 
>
</g>

<g fill="none" stroke="#000000" stroke-opacity="1" stroke-width="1" stroke-linecap="square" stroke-linejoin="bevel" transform="matrix(1,0,0,1,0,0)"
font-family="Ubuntu" font-size="11" font-weight="400" font-style="normal" 
>
</g>
</g>
</svg>
