<?xml version="1.0" encoding="UTF-8" standalone="no"?>
<svg width="494.594mm" height="25.4mm"
 xmlns="http://www.w3.org/2000/svg" xmlns:xlink="http://www.w3.org/1999/xlink"  version="1.2" baseProfile="tiny">
<title>Qt SVG Document</title>
<desc>Generated with Qt</desc>
<defs>
</defs>
<g fill="none" stroke="black" stroke-width="1" fill-rule="evenodd" stroke-linecap="square" stroke-linejoin="bevel" >

<g fill="none" stroke="#000000" stroke-opacity="1" stroke-width="1" stroke-linecap="square" stroke-linejoin="bevel" transform="matrix(1,0,0,1,0,0)"
font-family="Ubuntu" font-size="11" font-weight="400" font-style="normal" 
>
</g>

<g fill="none" stroke="#000000" stroke-opacity="1" stroke-width="1" stroke-linecap="square" stroke-linejoin="bevel" transform="matrix(1,0,0,1,0,0)"
font-family="Ubuntu" font-size="11" font-weight="400" font-style="normal" 
>
</g>

<g fill="none" stroke="#000000" stroke-opacity="1" stroke-width="1" stroke-linecap="square" stroke-linejoin="bevel" transform="matrix(1.99954,0,0,1.99954,0,71.9833)"
font-family="Ubuntu" font-size="11" font-weight="400" font-style="normal" 
>
</g>

<g fill="#ffffff" fill-opacity="1" stroke="none" transform="matrix(1.99954,0,0,1.99954,0,71.9833)"
font-family="Ubuntu" font-size="11" font-weight="400" font-style="normal" 
>
<rect x="0" y="-36" width="701.162" height="36"/>
</g>

<g fill="none" stroke="#000000" stroke-opacity="1" stroke-width="1" stroke-linecap="square" stroke-linejoin="bevel" transform="matrix(1.99954,0,0,1.99954,0,71.9833)"
font-family="Ubuntu" font-size="11" font-weight="400" font-style="normal" 
>
</g>

<g fill="none" stroke="#000000" stroke-opacity="1" stroke-width="1" stroke-linecap="square" stroke-linejoin="bevel" transform="matrix(1.99954,0,0,1.99954,0,71.9833)"
font-family="Ubuntu" font-size="11" font-weight="400" font-style="normal" 
>
</g>

<g fill="none" stroke="#000000" stroke-opacity="1" stroke-width="1" stroke-linecap="square" stroke-linejoin="bevel" transform="matrix(1.99954,0,0,1.99954,0,71.9833)"
font-family="Ubuntu" font-size="11" font-weight="400" font-style="normal" 
>
</g>

<g fill="none" stroke="#000000" stroke-opacity="1" stroke-width="1" stroke-linecap="square" stroke-linejoin="bevel" transform="matrix(1.99954,0,0,1.99954,0,71.9833)"
font-family="Ubuntu" font-size="11" font-weight="400" font-style="normal" 
>
</g>

<g fill="none" stroke="#000000" stroke-opacity="1" stroke-width="1" stroke-linecap="square" stroke-linejoin="round" transform="matrix(1.99954,0,0,1.99954,0,71.9833)"
font-family="Ubuntu" font-size="11" font-weight="400" font-style="normal" 
>
<ellipse cx="370.23" cy="-18" rx="56.0452" ry="17.5"/>
</g>

<g fill="none" stroke="#000000" stroke-opacity="1" stroke-width="1" stroke-linecap="square" stroke-linejoin="bevel" transform="matrix(1.99954,0,0,1.99954,0,71.9833)"
font-family="Ubuntu" font-size="11" font-weight="400" font-style="normal" 
>
</g>

<g fill="none" stroke="#000000" stroke-opacity="1" stroke-width="1" stroke-linecap="square" stroke-linejoin="bevel" transform="matrix(1.99954,0,0,1.99954,687.207,21.9949)"
font-family="Ubuntu" font-size="11" font-weight="400" font-style="normal" 
>
</g>

<g fill="none" stroke="#000000" stroke-opacity="1" stroke-width="1" stroke-linecap="square" stroke-linejoin="bevel" transform="matrix(1.99954,0,0,1.99954,687.207,21.9949)"
font-family="sans" font-size="11" font-weight="100" font-style="normal" 
>
</g>

<g fill="#000000" fill-opacity="1" stroke="#000000" stroke-opacity="1" stroke-width="1" stroke-linecap="square" stroke-linejoin="round" transform="matrix(1.99954,0,0,1.99954,687.207,21.9949)"
font-family="sans" font-size="11" font-weight="100" font-style="normal" 
>
<path vector-effect="none" fill-rule="nonzero" d="M2.96875,2.98438 L3.53125,2.98438 L0.734375,12.0156 L0.171875,12.0156 L2.96875,2.98438 M5.46875,3.28125 L5.46875,4.98438 L7.5,4.98438 L7.5,5.40625 L5.46875,5.40625 L5.46875,9.01563 C5.46875,9.47396 5.52604,9.79688 5.64063,9.98438 C5.89063,10.3802 6.25,10.5781 6.71875,10.5781 L7.5,10.5781 L7.5,11 L6.73438,11 C6.24479,11 5.82813,10.8568 5.48438,10.5703 C5.14063,10.2839 4.96875,9.76563 4.96875,9.01563 L4.96875,5.40625 L4.25,5.40625 L4.25,4.98438 L4.96875,4.98438 L4.96875,3.28125 L5.46875,3.28125 M9.20313,8.60938 L9.20313,4.98438 L9.6875,4.98438 L9.6875,8.57813 C9.6875,9.35938 9.8125,9.90885 10.0625,10.2266 C10.3125,10.5443 10.6823,10.7031 11.1719,10.7031 C11.7448,10.7031 12.2344,10.5313 12.6406,10.1875 C13.0469,9.84375 13.25,9.24479 13.25,8.39063 L13.25,4.98438 L13.7344,4.98438 L13.7344,11 L13.25,11 L13.25,9.875 C13.0729,10.2396 12.8385,10.5156 12.5469,10.7031 C12.1302,10.9948 11.6667,11.1406 11.1563,11.1406 C10.5625,11.1406 10.0885,10.9375 9.73438,10.5313 C9.38021,10.1354 9.20313,9.49479 9.20313,8.60938 M19.5,5.40625 C19.4167,5.36458 19.3073,5.33333 19.1719,5.3125 C19.0469,5.29167 18.8958,5.28125 18.7188,5.28125 C18.1042,5.28125 17.599,5.50521 17.2031,5.95313 C16.8802,6.31771 16.7188,6.94271 16.7188,7.82813 L16.7188,11 L16.2344,11 L16.2344,4.98438 L16.7188,4.98438 L16.7188,6.10938 C16.8854,5.78646 17.1146,5.51563 17.4063,5.29688 C17.8021,4.99479 18.2708,4.84375 18.8125,4.84375 C18.9583,4.84375 19.0833,4.84896 19.1875,4.85938 C19.2917,4.85938 19.3958,4.86979 19.5,4.89063 L19.5,5.40625 M21.2656,3.28125 L21.2656,4.98438 L23.2969,4.98438 L23.2969,5.40625 L21.2656,5.40625 L21.2656,9.01563 C21.2656,9.47396 21.3229,9.79688 21.4375,9.98438 C21.6875,10.3802 22.0469,10.5781 22.5156,10.5781 L23.2969,10.5781 L23.2969,11 L22.5313,11 C22.0417,11 21.625,10.8568 21.2813,10.5703 C20.9375,10.2839 20.7656,9.76563 20.7656,9.01563 L20.7656,5.40625 L20.0469,5.40625 L20.0469,4.98438 L20.7656,4.98438 L20.7656,3.28125 L21.2656,3.28125 M25.0625,2.64063 L25.5469,2.64063 L25.5469,11 L25.0625,11 L25.0625,2.64063 M32.7969,7.75 L32.7969,8.0625 L28.2344,8.0625 C28.2344,9.02083 28.4219,9.69792 28.7969,10.0938 C29.2135,10.5208 29.8281,10.7344 30.6406,10.7344 C30.8594,10.7344 31.1458,10.6875 31.5,10.5938 C31.8542,10.5 32.2083,10.3594 32.5625,10.1719 L32.5625,10.6875 C32.2083,10.8438 31.8464,10.9609 31.4766,11.0391 C31.1068,11.1172 30.8125,11.1563 30.5938,11.1563 C29.6667,11.1563 28.9688,10.9063 28.5,10.4063 C27.9896,9.875 27.7344,9.09375 27.7344,8.0625 C27.7344,6.98958 27.9635,6.1875 28.4219,5.65625 C28.901,5.11458 29.5677,4.84375 30.4219,4.84375 C31.2031,4.84375 31.7969,5.10417 32.2031,5.625 C32.599,6.16667 32.7969,6.875 32.7969,7.75 M32.2969,7.64063 C32.2969,6.79688 32.1042,6.18229 31.7188,5.79688 C31.4063,5.45313 30.974,5.28125 30.4219,5.28125 C29.8281,5.28125 29.3281,5.45833 28.9219,5.8125 C28.5469,6.14583 28.3229,6.75521 28.25,7.64063 L32.2969,7.64063 M38.2813,5.15625 L38.2813,5.70313 C37.9271,5.50521 37.7083,5.39583 37.625,5.375 C37.375,5.32292 37.0625,5.29167 36.6875,5.28125 C36.125,5.28125 35.6823,5.39063 35.3594,5.60938 C35.1094,5.79688 34.9844,6.11458 34.9844,6.5625 C34.9844,6.875 35.1042,7.11458 35.3438,7.28125 C35.5833,7.46875 35.9323,7.61458 36.3906,7.71875 L36.7344,7.78125 C37.3073,7.90625 37.7396,8.08333 38.0313,8.3125 C38.375,8.58333 38.5521,8.92708 38.5625,9.34375 C38.5625,9.90625 38.3958,10.349 38.0625,10.6719 C37.7083,10.9948 37.1302,11.1563 36.3281,11.1563 C35.8906,11.1563 35.5573,11.125 35.3281,11.0625 C35.0469,10.9896 34.7552,10.8958 34.4531,10.7813 L34.4531,10.1563 C34.8906,10.4063 35.1719,10.5521 35.2969,10.5938 C35.651,10.6875 36.0052,10.7344 36.3594,10.7344 C36.9323,10.7344 37.3594,10.6146 37.6406,10.375 C37.9219,10.125 38.0625,9.80729 38.0625,9.42188 C38.0625,9.08854 37.9688,8.84896 37.7813,8.70313 C37.5104,8.48438 37.0833,8.30729 36.5,8.17188 L36.1563,8.09375 C35.6458,7.96875 35.2604,7.80208 35,7.59375 C34.6667,7.32292 34.5,6.99479 34.5,6.60938 C34.5,5.98438 34.7005,5.53385 35.1016,5.25781 C35.5026,4.98177 35.9948,4.84375 36.5781,4.84375 C37.0781,4.84375 37.4219,4.86979 37.6094,4.92188 C37.8385,4.98438 38.0625,5.0625 38.2813,5.15625 M40.5781,4.98438 L41.0781,4.98438 L41.0781,11 L40.5781,11 L40.5781,4.98438 M40.5781,2.64063 L41.0781,2.64063 L41.0781,3.3125 L40.5781,3.3125 L40.5781,2.64063 M47.9688,6.29688 C48.1563,5.80729 48.4479,5.44271 48.8438,5.20313 C49.2292,4.96354 49.6823,4.84375 50.2031,4.84375 C50.724,4.84375 51.1406,5.02604 51.4531,5.39063 C51.776,5.75521 51.9375,6.41667 51.9375,7.375 L51.9375,11 L51.4531,11 L51.4531,7.40625 C51.4531,6.57292 51.3385,6.01042 51.1094,5.71875 C50.8802,5.42708 50.5729,5.28125 50.1875,5.28125 C49.6354,5.28125 49.151,5.44792 48.7344,5.78125 C48.2656,6.15625 48.0313,6.76042 48.0313,7.59375 L48.0313,11 L47.5469,11 L47.5469,7.40625 C47.5469,6.60417 47.4349,6.04948 47.2109,5.74219 C46.987,5.4349 46.6771,5.28125 46.2813,5.28125 C45.7292,5.28125 45.2448,5.45313 44.8281,5.79688 C44.3594,6.16146 44.125,6.76042 44.125,7.59375 L44.125,11 L43.6406,11 L43.6406,4.98438 L44.125,4.98438 L44.125,6.10938 C44.3021,5.71354 44.5781,5.40104 44.9531,5.17188 C45.3177,4.95313 45.7708,4.84375 46.3125,4.84375 C46.6667,4.84375 47.0052,4.95833 47.3281,5.1875 C47.5781,5.375 47.7917,5.74479 47.9688,6.29688 "/>
</g>

<g fill="none" stroke="#000000" stroke-opacity="1" stroke-width="1" stroke-linecap="square" stroke-linejoin="bevel" transform="matrix(1.99954,0,0,1.99954,687.207,21.9949)"
font-family="sans" font-size="11" font-weight="100" font-style="normal" 
>
</g>

<g fill="none" stroke="#000000" stroke-opacity="1" stroke-width="1" stroke-linecap="square" stroke-linejoin="bevel" transform="matrix(1.99954,0,0,1.99954,687.207,21.9949)"
font-family="Ubuntu" font-size="11" font-weight="400" font-style="normal" 
>
</g>

<g fill="none" stroke="#000000" stroke-opacity="1" stroke-width="1" stroke-linecap="square" stroke-linejoin="bevel" transform="matrix(1.99954,0,0,1.99954,0,71.9833)"
font-family="Ubuntu" font-size="11" font-weight="400" font-style="normal" 
>
</g>

<g fill="none" stroke="#000000" stroke-opacity="1" stroke-width="1" stroke-linecap="square" stroke-linejoin="bevel" transform="matrix(1.99954,0,0,1.99954,0,71.9833)"
font-family="Ubuntu" font-size="11" font-weight="400" font-style="normal" 
>
</g>

<g fill="none" stroke="#000000" stroke-opacity="1" stroke-width="1" stroke-linecap="square" stroke-linejoin="bevel" transform="matrix(1.99954,0,0,1.99954,0,71.9833)"
font-family="Ubuntu" font-size="11" font-weight="400" font-style="normal" 
>
</g>

<g fill="none" stroke="#000000" stroke-opacity="1" stroke-width="1" stroke-linecap="square" stroke-linejoin="round" transform="matrix(1.99954,0,0,1.99954,0,71.9833)"
font-family="Ubuntu" font-size="11" font-weight="400" font-style="normal" 
>
<ellipse cx="617.97" cy="-18" rx="82.6924" ry="17.5"/>
</g>

<g fill="none" stroke="#000000" stroke-opacity="1" stroke-width="1" stroke-linecap="square" stroke-linejoin="bevel" transform="matrix(1.99954,0,0,1.99954,0,71.9833)"
font-family="Ubuntu" font-size="11" font-weight="400" font-style="normal" 
>
</g>

<g fill="none" stroke="#000000" stroke-opacity="1" stroke-width="1" stroke-linecap="square" stroke-linejoin="bevel" transform="matrix(1.99954,0,0,1.99954,1149.99,21.9949)"
font-family="Ubuntu" font-size="11" font-weight="400" font-style="normal" 
>
</g>

<g fill="none" stroke="#000000" stroke-opacity="1" stroke-width="1" stroke-linecap="square" stroke-linejoin="bevel" transform="matrix(1.99954,0,0,1.99954,1149.99,21.9949)"
font-family="sans" font-size="11" font-weight="100" font-style="normal" 
>
</g>

<g fill="#000000" fill-opacity="1" stroke="#000000" stroke-opacity="1" stroke-width="1" stroke-linecap="square" stroke-linejoin="round" transform="matrix(1.99954,0,0,1.99954,1149.99,21.9949)"
font-family="sans" font-size="11" font-weight="100" font-style="normal" 
>
<path vector-effect="none" fill-rule="nonzero" d="M2.96875,2.98438 L3.53125,2.98438 L0.734375,12.0156 L0.171875,12.0156 L2.96875,2.98438 M5.46875,3.28125 L5.46875,4.98438 L7.5,4.98438 L7.5,5.40625 L5.46875,5.40625 L5.46875,9.01563 C5.46875,9.47396 5.52604,9.79688 5.64063,9.98438 C5.89063,10.3802 6.25,10.5781 6.71875,10.5781 L7.5,10.5781 L7.5,11 L6.73438,11 C6.24479,11 5.82813,10.8568 5.48438,10.5703 C5.14063,10.2839 4.96875,9.76563 4.96875,9.01563 L4.96875,5.40625 L4.25,5.40625 L4.25,4.98438 L4.96875,4.98438 L4.96875,3.28125 L5.46875,3.28125 M9.20313,8.60938 L9.20313,4.98438 L9.6875,4.98438 L9.6875,8.57813 C9.6875,9.35938 9.8125,9.90885 10.0625,10.2266 C10.3125,10.5443 10.6823,10.7031 11.1719,10.7031 C11.7448,10.7031 12.2344,10.5313 12.6406,10.1875 C13.0469,9.84375 13.25,9.24479 13.25,8.39063 L13.25,4.98438 L13.7344,4.98438 L13.7344,11 L13.25,11 L13.25,9.875 C13.0729,10.2396 12.8385,10.5156 12.5469,10.7031 C12.1302,10.9948 11.6667,11.1406 11.1563,11.1406 C10.5625,11.1406 10.0885,10.9375 9.73438,10.5313 C9.38021,10.1354 9.20313,9.49479 9.20313,8.60938 M19.5,5.40625 C19.4167,5.36458 19.3073,5.33333 19.1719,5.3125 C19.0469,5.29167 18.8958,5.28125 18.7188,5.28125 C18.1042,5.28125 17.599,5.50521 17.2031,5.95313 C16.8802,6.31771 16.7188,6.94271 16.7188,7.82813 L16.7188,11 L16.2344,11 L16.2344,4.98438 L16.7188,4.98438 L16.7188,6.10938 C16.8854,5.78646 17.1146,5.51563 17.4063,5.29688 C17.8021,4.99479 18.2708,4.84375 18.8125,4.84375 C18.9583,4.84375 19.0833,4.84896 19.1875,4.85938 C19.2917,4.85938 19.3958,4.86979 19.5,4.89063 L19.5,5.40625 M21.2656,3.28125 L21.2656,4.98438 L23.2969,4.98438 L23.2969,5.40625 L21.2656,5.40625 L21.2656,9.01563 C21.2656,9.47396 21.3229,9.79688 21.4375,9.98438 C21.6875,10.3802 22.0469,10.5781 22.5156,10.5781 L23.2969,10.5781 L23.2969,11 L22.5313,11 C22.0417,11 21.625,10.8568 21.2813,10.5703 C20.9375,10.2839 20.7656,9.76563 20.7656,9.01563 L20.7656,5.40625 L20.0469,5.40625 L20.0469,4.98438 L20.7656,4.98438 L20.7656,3.28125 L21.2656,3.28125 M25.0625,2.64063 L25.5469,2.64063 L25.5469,11 L25.0625,11 L25.0625,2.64063 M32.7969,7.75 L32.7969,8.0625 L28.2344,8.0625 C28.2344,9.02083 28.4219,9.69792 28.7969,10.0938 C29.2135,10.5208 29.8281,10.7344 30.6406,10.7344 C30.8594,10.7344 31.1458,10.6875 31.5,10.5938 C31.8542,10.5 32.2083,10.3594 32.5625,10.1719 L32.5625,10.6875 C32.2083,10.8438 31.8464,10.9609 31.4766,11.0391 C31.1068,11.1172 30.8125,11.1563 30.5938,11.1563 C29.6667,11.1563 28.9688,10.9063 28.5,10.4063 C27.9896,9.875 27.7344,9.09375 27.7344,8.0625 C27.7344,6.98958 27.9635,6.1875 28.4219,5.65625 C28.901,5.11458 29.5677,4.84375 30.4219,4.84375 C31.2031,4.84375 31.7969,5.10417 32.2031,5.625 C32.599,6.16667 32.7969,6.875 32.7969,7.75 M32.2969,7.64063 C32.2969,6.79688 32.1042,6.18229 31.7188,5.79688 C31.4063,5.45313 30.974,5.28125 30.4219,5.28125 C29.8281,5.28125 29.3281,5.45833 28.9219,5.8125 C28.5469,6.14583 28.3229,6.75521 28.25,7.64063 L32.2969,7.64063 M39.2344,13.1719 L39.2344,13.5938 L33.5156,13.5938 L33.5156,13.1719 L39.2344,13.1719 M44.375,6.35938 L44.375,2.64063 L44.8438,2.64063 L44.8438,11 L44.375,11 L44.375,9.64063 C44.1458,10.1615 43.8958,10.5156 43.625,10.7031 C43.2292,11.0052 42.849,11.1563 42.4844,11.1563 C41.776,11.1563 41.1849,10.8672 40.7109,10.2891 C40.237,9.71094 40,8.94792 40,8 C40,7.05208 40.237,6.28906 40.7109,5.71094 C41.1849,5.13281 41.776,4.84375 42.4844,4.84375 C42.849,4.84375 43.2292,4.98958 43.625,5.28125 C43.8958,5.47917 44.1458,5.83854 44.375,6.35938 M41.1406,5.90625 C40.724,6.32292 40.5156,7.02083 40.5156,8 C40.5156,8.97917 40.724,9.67708 41.1406,10.0938 C41.5573,10.5104 41.9948,10.7188 42.4531,10.7188 C42.901,10.7188 43.3333,10.5104 43.75,10.0938 C44.1563,9.67708 44.3594,8.97917 44.3594,8 C44.3594,7.02083 44.1563,6.32292 43.75,5.90625 C43.3333,5.48958 42.901,5.28125 42.4531,5.28125 C41.9948,5.28125 41.5573,5.48958 41.1406,5.90625 M47.3281,4.98438 L47.8281,4.98438 L47.8281,11 L47.3281,11 L47.3281,4.98438 M47.3281,2.64063 L47.8281,2.64063 L47.8281,3.3125 L47.3281,3.3125 L47.3281,2.64063 M53.7969,5.15625 L53.7969,5.70313 C53.4427,5.50521 53.224,5.39583 53.1406,5.375 C52.8906,5.32292 52.5781,5.29167 52.2031,5.28125 C51.6406,5.28125 51.1979,5.39063 50.875,5.60938 C50.625,5.79688 50.5,6.11458 50.5,6.5625 C50.5,6.875 50.6198,7.11458 50.8594,7.28125 C51.099,7.46875 51.4479,7.61458 51.9063,7.71875 L52.25,7.78125 C52.8229,7.90625 53.2552,8.08333 53.5469,8.3125 C53.8906,8.58333 54.0677,8.92708 54.0781,9.34375 C54.0781,9.90625 53.9115,10.349 53.5781,10.6719 C53.224,10.9948 52.6458,11.1563 51.8438,11.1563 C51.4063,11.1563 51.0729,11.125 50.8438,11.0625 C50.5625,10.9896 50.2708,10.8958 49.9688,10.7813 L49.9688,10.1563 C50.4063,10.4063 50.6875,10.5521 50.8125,10.5938 C51.1667,10.6875 51.5208,10.7344 51.875,10.7344 C52.4479,10.7344 52.875,10.6146 53.1563,10.375 C53.4375,10.125 53.5781,9.80729 53.5781,9.42188 C53.5781,9.08854 53.4844,8.84896 53.2969,8.70313 C53.026,8.48438 52.599,8.30729 52.0156,8.17188 L51.6719,8.09375 C51.1615,7.96875 50.776,7.80208 50.5156,7.59375 C50.1823,7.32292 50.0156,6.99479 50.0156,6.60938 C50.0156,5.98438 50.2161,5.53385 50.6172,5.25781 C51.0182,4.98177 51.5104,4.84375 52.0938,4.84375 C52.5938,4.84375 52.9375,4.86979 53.125,4.92188 C53.3542,4.98438 53.5781,5.0625 53.7969,5.15625 M56.625,3.28125 L56.625,4.98438 L58.6563,4.98438 L58.6563,5.40625 L56.625,5.40625 L56.625,9.01563 C56.625,9.47396 56.6823,9.79688 56.7969,9.98438 C57.0469,10.3802 57.4063,10.5781 57.875,10.5781 L58.6563,10.5781 L58.6563,11 L57.8906,11 C57.401,11 56.9844,10.8568 56.6406,10.5703 C56.2969,10.2839 56.125,9.76563 56.125,9.01563 L56.125,5.40625 L55.4063,5.40625 L55.4063,4.98438 L56.125,4.98438 L56.125,3.28125 L56.625,3.28125 M62.8281,7.60938 C62.026,7.60938 61.4505,7.75 61.1016,8.03125 C60.7526,8.3125 60.5781,8.72396 60.5781,9.26563 C60.5781,9.79688 60.724,10.1745 61.0156,10.3984 C61.3073,10.6224 61.651,10.7344 62.0469,10.7344 C62.7969,10.7344 63.3385,10.4167 63.6719,9.78125 C64.0052,9.13542 64.1719,8.53125 64.1719,7.96875 L64.1719,7.60938 L62.8281,7.60938 M64.6719,7.5625 L64.6719,11 L64.1719,11 L64.1719,9.35938 C63.901,10.1615 63.5365,10.6719 63.0781,10.8906 C62.724,11.0677 62.3646,11.1563 62,11.1563 C61.4063,11.1563 60.9375,10.9948 60.5938,10.6719 C60.25,10.349 60.0781,9.8776 60.0781,9.25781 C60.0781,8.63802 60.3021,8.14063 60.75,7.76563 C61.1979,7.39063 61.9271,7.20313 62.9375,7.20313 L64.1719,7.20313 L64.1719,7.10938 C64.1719,6.57813 64.0156,6.14063 63.7031,5.79688 C63.4115,5.45313 62.9167,5.28125 62.2188,5.28125 C61.875,5.28125 61.526,5.34375 61.1719,5.46875 C60.9427,5.55208 60.6406,5.71875 60.2656,5.96875 L60.2656,5.4375 C60.5885,5.23958 60.8906,5.09896 61.1719,5.01563 C61.5677,4.90104 61.9479,4.84375 62.3125,4.84375 C63.0313,4.84375 63.6198,5.05729 64.0781,5.48438 C64.474,5.84896 64.6719,6.54167 64.6719,7.5625 M71.7031,7.375 L71.7031,11 L71.2031,11 L71.2031,7.40625 C71.2031,6.625 71.0781,6.07552 70.8281,5.75781 C70.5781,5.4401 70.2083,5.28125 69.7188,5.28125 C69.1458,5.28125 68.6615,5.45313 68.2656,5.79688 C67.849,6.14063 67.6406,6.73958 67.6406,7.59375 L67.6406,11 L67.1563,11 L67.1563,4.98438 L67.6406,4.98438 L67.6406,6.10938 C67.8177,5.74479 68.0521,5.46875 68.3438,5.28125 C68.7604,4.98958 69.224,4.84375 69.7344,4.84375 C70.3385,4.84375 70.8177,5.04688 71.1719,5.45313 C71.526,5.84896 71.7031,6.48958 71.7031,7.375 M78.2344,5.28125 L78.2344,5.79688 C77.9427,5.61979 77.6979,5.5 77.5,5.4375 C77.1667,5.33333 76.849,5.28125 76.5469,5.28125 C75.6823,5.28125 75.0625,5.5026 74.6875,5.94531 C74.3125,6.38802 74.125,7.07292 74.125,8 C74.125,8.9375 74.3125,9.6276 74.6875,10.0703 C75.0625,10.513 75.6823,10.7344 76.5469,10.7344 C76.8385,10.7344 77.1198,10.6927 77.3906,10.6094 C77.6823,10.5365 77.9635,10.4219 78.2344,10.2656 L78.2344,10.7656 C77.9635,10.901 77.6823,11 77.3906,11.0625 C77.0885,11.125 76.7917,11.1563 76.5,11.1563 C75.625,11.1563 74.9271,10.9167 74.4063,10.4375 C73.8854,9.95833 73.625,9.14323 73.625,7.99219 C73.625,6.84115 73.8854,6.02604 74.4063,5.54688 C74.9271,5.07813 75.625,4.84375 76.5,4.84375 C76.7917,4.84375 77.099,4.88542 77.4219,4.96875 C77.7448,5.04167 78.0156,5.14583 78.2344,5.28125 M84.8594,7.75 L84.8594,8.0625 L80.2969,8.0625 C80.2969,9.02083 80.4844,9.69792 80.8594,10.0938 C81.276,10.5208 81.8906,10.7344 82.7031,10.7344 C82.9219,10.7344 83.2083,10.6875 83.5625,10.5938 C83.9167,10.5 84.2708,10.3594 84.625,10.1719 L84.625,10.6875 C84.2708,10.8438 83.9089,10.9609 83.5391,11.0391 C83.1693,11.1172 82.875,11.1563 82.6563,11.1563 C81.7292,11.1563 81.0313,10.9063 80.5625,10.4063 C80.0521,9.875 79.7969,9.09375 79.7969,8.0625 C79.7969,6.98958 80.026,6.1875 80.4844,5.65625 C80.9635,5.11458 81.6302,4.84375 82.4844,4.84375 C83.2656,4.84375 83.8594,5.10417 84.2656,5.625 C84.6615,6.16667 84.8594,6.875 84.8594,7.75 M84.3594,7.64063 C84.3594,6.79688 84.1667,6.18229 83.7813,5.79688 C83.4688,5.45313 83.0365,5.28125 82.4844,5.28125 C81.8906,5.28125 81.3906,5.45833 80.9844,5.8125 C80.6094,6.14583 80.3854,6.75521 80.3125,7.64063 L84.3594,7.64063"/>
</g>

<g fill="none" stroke="#000000" stroke-opacity="1" stroke-width="1" stroke-linecap="square" stroke-linejoin="bevel" transform="matrix(1.99954,0,0,1.99954,1149.99,21.9949)"
font-family="sans" font-size="11" font-weight="100" font-style="normal" 
>
</g>

<g fill="none" stroke="#000000" stroke-opacity="1" stroke-width="1" stroke-linecap="square" stroke-linejoin="bevel" transform="matrix(1.99954,0,0,1.99954,1149.99,21.9949)"
font-family="Ubuntu" font-size="11" font-weight="400" font-style="normal" 
>
</g>

<g fill="none" stroke="#000000" stroke-opacity="1" stroke-width="1" stroke-linecap="square" stroke-linejoin="bevel" transform="matrix(1.99954,0,0,1.99954,0,71.9833)"
font-family="Ubuntu" font-size="11" font-weight="400" font-style="normal" 
>
</g>

<g fill="none" stroke="#000000" stroke-opacity="1" stroke-width="1" stroke-linecap="square" stroke-linejoin="bevel" transform="matrix(1.99954,0,0,1.99954,0,71.9833)"
font-family="Ubuntu" font-size="11" font-weight="400" font-style="normal" 
>
</g>

<g fill="none" stroke="#000000" stroke-opacity="1" stroke-width="1" stroke-linecap="square" stroke-linejoin="bevel" transform="matrix(1.99954,0,0,1.99954,0,71.9833)"
font-family="Ubuntu" font-size="11" font-weight="400" font-style="normal" 
>
</g>

<g fill="none" stroke="#000000" stroke-opacity="1" stroke-width="1" stroke-linecap="square" stroke-linejoin="round" transform="matrix(1.99954,0,0,1.99954,0,71.9833)"
font-family="Ubuntu" font-size="11" font-weight="400" font-style="normal" 
>
<ellipse cx="90.342" cy="-18" rx="89.842" ry="17.5"/>
</g>

<g fill="none" stroke="#000000" stroke-opacity="1" stroke-width="1" stroke-linecap="square" stroke-linejoin="bevel" transform="matrix(1.99954,0,0,1.99954,0,71.9833)"
font-family="Ubuntu" font-size="11" font-weight="400" font-style="normal" 
>
</g>

<g fill="none" stroke="#000000" stroke-opacity="1" stroke-width="1" stroke-linecap="square" stroke-linejoin="bevel" transform="matrix(1.99954,0,0,1.99954,88.0698,21.9949)"
font-family="Ubuntu" font-size="11" font-weight="400" font-style="normal" 
>
</g>

<g fill="none" stroke="#000000" stroke-opacity="1" stroke-width="1" stroke-linecap="square" stroke-linejoin="bevel" transform="matrix(1.99954,0,0,1.99954,88.0698,21.9949)"
font-family="sans" font-size="11" font-weight="100" font-style="normal" 
>
</g>

<g fill="#000000" fill-opacity="1" stroke="#000000" stroke-opacity="1" stroke-width="1" stroke-linecap="square" stroke-linejoin="round" transform="matrix(1.99954,0,0,1.99954,88.0698,21.9949)"
font-family="sans" font-size="11" font-weight="100" font-style="normal" 
>
<path vector-effect="none" fill-rule="nonzero" d="M2.96875,2.98438 L3.53125,2.98438 L0.734375,12.0156 L0.171875,12.0156 L2.96875,2.98438 M5.46875,3.28125 L5.46875,4.98438 L7.5,4.98438 L7.5,5.40625 L5.46875,5.40625 L5.46875,9.01563 C5.46875,9.47396 5.52604,9.79688 5.64063,9.98438 C5.89063,10.3802 6.25,10.5781 6.71875,10.5781 L7.5,10.5781 L7.5,11 L6.73438,11 C6.24479,11 5.82813,10.8568 5.48438,10.5703 C5.14063,10.2839 4.96875,9.76563 4.96875,9.01563 L4.96875,5.40625 L4.25,5.40625 L4.25,4.98438 L4.96875,4.98438 L4.96875,3.28125 L5.46875,3.28125 M9.20313,8.60938 L9.20313,4.98438 L9.6875,4.98438 L9.6875,8.57813 C9.6875,9.35938 9.8125,9.90885 10.0625,10.2266 C10.3125,10.5443 10.6823,10.7031 11.1719,10.7031 C11.7448,10.7031 12.2344,10.5313 12.6406,10.1875 C13.0469,9.84375 13.25,9.24479 13.25,8.39063 L13.25,4.98438 L13.7344,4.98438 L13.7344,11 L13.25,11 L13.25,9.875 C13.0729,10.2396 12.8385,10.5156 12.5469,10.7031 C12.1302,10.9948 11.6667,11.1406 11.1563,11.1406 C10.5625,11.1406 10.0885,10.9375 9.73438,10.5313 C9.38021,10.1354 9.20313,9.49479 9.20313,8.60938 M19.5,5.40625 C19.4167,5.36458 19.3073,5.33333 19.1719,5.3125 C19.0469,5.29167 18.8958,5.28125 18.7188,5.28125 C18.1042,5.28125 17.599,5.50521 17.2031,5.95313 C16.8802,6.31771 16.7188,6.94271 16.7188,7.82813 L16.7188,11 L16.2344,11 L16.2344,4.98438 L16.7188,4.98438 L16.7188,6.10938 C16.8854,5.78646 17.1146,5.51563 17.4063,5.29688 C17.8021,4.99479 18.2708,4.84375 18.8125,4.84375 C18.9583,4.84375 19.0833,4.84896 19.1875,4.85938 C19.2917,4.85938 19.3958,4.86979 19.5,4.89063 L19.5,5.40625 M21.2656,3.28125 L21.2656,4.98438 L23.2969,4.98438 L23.2969,5.40625 L21.2656,5.40625 L21.2656,9.01563 C21.2656,9.47396 21.3229,9.79688 21.4375,9.98438 C21.6875,10.3802 22.0469,10.5781 22.5156,10.5781 L23.2969,10.5781 L23.2969,11 L22.5313,11 C22.0417,11 21.625,10.8568 21.2813,10.5703 C20.9375,10.2839 20.7656,9.76563 20.7656,9.01563 L20.7656,5.40625 L20.0469,5.40625 L20.0469,4.98438 L20.7656,4.98438 L20.7656,3.28125 L21.2656,3.28125 M25.0625,2.64063 L25.5469,2.64063 L25.5469,11 L25.0625,11 L25.0625,2.64063 M32.7969,7.75 L32.7969,8.0625 L28.2344,8.0625 C28.2344,9.02083 28.4219,9.69792 28.7969,10.0938 C29.2135,10.5208 29.8281,10.7344 30.6406,10.7344 C30.8594,10.7344 31.1458,10.6875 31.5,10.5938 C31.8542,10.5 32.2083,10.3594 32.5625,10.1719 L32.5625,10.6875 C32.2083,10.8438 31.8464,10.9609 31.4766,11.0391 C31.1068,11.1172 30.8125,11.1563 30.5938,11.1563 C29.6667,11.1563 28.9688,10.9063 28.5,10.4063 C27.9896,9.875 27.7344,9.09375 27.7344,8.0625 C27.7344,6.98958 27.9635,6.1875 28.4219,5.65625 C28.901,5.11458 29.5677,4.84375 30.4219,4.84375 C31.2031,4.84375 31.7969,5.10417 32.2031,5.625 C32.599,6.16667 32.7969,6.875 32.7969,7.75 M32.2969,7.64063 C32.2969,6.79688 32.1042,6.18229 31.7188,5.79688 C31.4063,5.45313 30.974,5.28125 30.4219,5.28125 C29.8281,5.28125 29.3281,5.45833 28.9219,5.8125 C28.5469,6.14583 28.3229,6.75521 28.25,7.64063 L32.2969,7.64063 M39.2344,13.1719 L39.2344,13.5938 L33.5156,13.5938 L33.5156,13.1719 L39.2344,13.1719 M40.8906,3.28125 L40.8906,4.98438 L42.9219,4.98438 L42.9219,5.40625 L40.8906,5.40625 L40.8906,9.01563 C40.8906,9.47396 40.9479,9.79688 41.0625,9.98438 C41.3125,10.3802 41.6719,10.5781 42.1406,10.5781 L42.9219,10.5781 L42.9219,11 L42.1563,11 C41.6667,11 41.25,10.8568 40.9063,10.5703 C40.5625,10.2839 40.3906,9.76563 40.3906,9.01563 L40.3906,5.40625 L39.6719,5.40625 L39.6719,4.98438 L40.3906,4.98438 L40.3906,3.28125 L40.8906,3.28125 M47.9531,5.40625 C47.8698,5.36458 47.7604,5.33333 47.625,5.3125 C47.5,5.29167 47.349,5.28125 47.1719,5.28125 C46.5573,5.28125 46.0521,5.50521 45.6563,5.95313 C45.3333,6.31771 45.1719,6.94271 45.1719,7.82813 L45.1719,11 L44.6875,11 L44.6875,4.98438 L45.1719,4.98438 L45.1719,6.10938 C45.3385,5.78646 45.5677,5.51563 45.8594,5.29688 C46.2552,4.99479 46.724,4.84375 47.2656,4.84375 C47.4115,4.84375 47.5365,4.84896 47.6406,4.85938 C47.7448,4.85938 47.849,4.86979 47.9531,4.89063 L47.9531,5.40625 M51.6094,7.60938 C50.8073,7.60938 50.2318,7.75 49.8828,8.03125 C49.5339,8.3125 49.3594,8.72396 49.3594,9.26563 C49.3594,9.79688 49.5052,10.1745 49.7969,10.3984 C50.0885,10.6224 50.4323,10.7344 50.8281,10.7344 C51.5781,10.7344 52.1198,10.4167 52.4531,9.78125 C52.7865,9.13542 52.9531,8.53125 52.9531,7.96875 L52.9531,7.60938 L51.6094,7.60938 M53.4531,7.5625 L53.4531,11 L52.9531,11 L52.9531,9.35938 C52.6823,10.1615 52.3177,10.6719 51.8594,10.8906 C51.5052,11.0677 51.1458,11.1563 50.7813,11.1563 C50.1875,11.1563 49.7188,10.9948 49.375,10.6719 C49.0313,10.349 48.8594,9.8776 48.8594,9.25781 C48.8594,8.63802 49.0833,8.14063 49.5313,7.76563 C49.9792,7.39063 50.7083,7.20313 51.7188,7.20313 L52.9531,7.20313 L52.9531,7.10938 C52.9531,6.57813 52.7969,6.14063 52.4844,5.79688 C52.1927,5.45313 51.6979,5.28125 51,5.28125 C50.6563,5.28125 50.3073,5.34375 49.9531,5.46875 C49.724,5.55208 49.4219,5.71875 49.0469,5.96875 L49.0469,5.4375 C49.3698,5.23958 49.6719,5.09896 49.9531,5.01563 C50.349,4.90104 50.7292,4.84375 51.0938,4.84375 C51.8125,4.84375 52.401,5.05729 52.8594,5.48438 C53.2552,5.84896 53.4531,6.54167 53.4531,7.5625 M55.9688,4.98438 L56.4688,4.98438 L56.4688,11.1094 C56.4688,11.9219 56.3438,12.4896 56.0938,12.8125 C55.8438,13.125 55.4323,13.2813 54.8594,13.2813 L54.4844,13.2813 L54.4844,12.875 L54.75,12.875 C55.1563,12.875 55.4635,12.7813 55.6719,12.5938 C55.8698,12.4167 55.9688,11.9219 55.9688,11.1094 L55.9688,4.98438 M55.9688,2.64063 L56.4688,2.64063 L56.4688,3.3125 L55.9688,3.3125 L55.9688,2.64063 M63.6719,7.75 L63.6719,8.0625 L59.1094,8.0625 C59.1094,9.02083 59.2969,9.69792 59.6719,10.0938 C60.0885,10.5208 60.7031,10.7344 61.5156,10.7344 C61.7344,10.7344 62.0208,10.6875 62.375,10.5938 C62.7292,10.5 63.0833,10.3594 63.4375,10.1719 L63.4375,10.6875 C63.0833,10.8438 62.7214,10.9609 62.3516,11.0391 C61.9818,11.1172 61.6875,11.1563 61.4688,11.1563 C60.5417,11.1563 59.8438,10.9063 59.375,10.4063 C58.8646,9.875 58.6094,9.09375 58.6094,8.0625 C58.6094,6.98958 58.8385,6.1875 59.2969,5.65625 C59.776,5.11458 60.4427,4.84375 61.2969,4.84375 C62.0781,4.84375 62.6719,5.10417 63.0781,5.625 C63.474,6.16667 63.6719,6.875 63.6719,7.75 M63.1719,7.64063 C63.1719,6.79688 62.9792,6.18229 62.5938,5.79688 C62.2813,5.45313 61.849,5.28125 61.2969,5.28125 C60.7031,5.28125 60.2031,5.45833 59.7969,5.8125 C59.4219,6.14583 59.1979,6.75521 59.125,7.64063 L63.1719,7.64063 M69.8594,5.28125 L69.8594,5.79688 C69.5677,5.61979 69.3229,5.5 69.125,5.4375 C68.7917,5.33333 68.474,5.28125 68.1719,5.28125 C67.3073,5.28125 66.6875,5.5026 66.3125,5.94531 C65.9375,6.38802 65.75,7.07292 65.75,8 C65.75,8.9375 65.9375,9.6276 66.3125,10.0703 C66.6875,10.513 67.3073,10.7344 68.1719,10.7344 C68.4635,10.7344 68.7448,10.6927 69.0156,10.6094 C69.3073,10.5365 69.5885,10.4219 69.8594,10.2656 L69.8594,10.7656 C69.5885,10.901 69.3073,11 69.0156,11.0625 C68.7135,11.125 68.4167,11.1563 68.125,11.1563 C67.25,11.1563 66.5521,10.9167 66.0313,10.4375 C65.5104,9.95833 65.25,9.14323 65.25,7.99219 C65.25,6.84115 65.5104,6.02604 66.0313,5.54688 C66.5521,5.07813 67.25,4.84375 68.125,4.84375 C68.4167,4.84375 68.724,4.88542 69.0469,4.96875 C69.3698,5.04167 69.6406,5.14583 69.8594,5.28125 M72.3125,3.28125 L72.3125,4.98438 L74.3438,4.98438 L74.3438,5.40625 L72.3125,5.40625 L72.3125,9.01563 C72.3125,9.47396 72.3698,9.79688 72.4844,9.98438 C72.7344,10.3802 73.0938,10.5781 73.5625,10.5781 L74.3438,10.5781 L74.3438,11 L73.5781,11 C73.0885,11 72.6719,10.8568 72.3281,10.5703 C71.9844,10.2839 71.8125,9.76563 71.8125,9.01563 L71.8125,5.40625 L71.0938,5.40625 L71.0938,4.98438 L71.8125,4.98438 L71.8125,3.28125 L72.3125,3.28125 M79.6875,6.01563 C79.3333,5.52604 78.849,5.28125 78.2344,5.28125 C77.6198,5.28125 77.1354,5.52604 76.7813,6.01563 C76.4271,6.49479 76.25,7.15104 76.25,7.98438 C76.25,8.83854 76.4271,9.51042 76.7813,10 C77.1354,10.4896 77.6198,10.7344 78.2344,10.7344 C78.849,10.7344 79.3333,10.4896 79.6875,10 C80.0417,9.5 80.2188,8.82813 80.2188,7.98438 C80.2188,7.16146 80.0417,6.50521 79.6875,6.01563 M78.2344,4.84375 C78.9948,4.84375 79.599,5.13021 80.0469,5.70313 C80.4948,6.27604 80.7188,7.03646 80.7188,7.98438 C80.7188,8.97396 80.4948,9.75521 80.0469,10.3281 C79.599,10.901 78.9948,11.1875 78.2344,11.1875 C77.4531,11.1875 76.8385,10.901 76.3906,10.3281 C75.9531,9.75521 75.7344,8.97396 75.7344,7.98438 C75.7344,7.02604 75.9583,6.26302 76.4063,5.69531 C76.8542,5.1276 77.4635,4.84375 78.2344,4.84375 M86.0938,5.40625 C86.0104,5.36458 85.901,5.33333 85.7656,5.3125 C85.6406,5.29167 85.4896,5.28125 85.3125,5.28125 C84.6979,5.28125 84.1927,5.50521 83.7969,5.95313 C83.474,6.31771 83.3125,6.94271 83.3125,7.82813 L83.3125,11 L82.8281,11 L82.8281,4.98438 L83.3125,4.98438 L83.3125,6.10938 C83.4792,5.78646 83.7083,5.51563 84,5.29688 C84.3958,4.99479 84.8646,4.84375 85.4063,4.84375 C85.5521,4.84375 85.6771,4.84896 85.7813,4.85938 C85.8854,4.85938 85.9896,4.86979 86.0938,4.89063 L86.0938,5.40625 M89.375,11.5625 C89.1563,12.0938 88.9219,12.4635 88.6719,12.6719 C88.3385,12.9427 88.0156,13.0781 87.7031,13.0781 L86.9688,13.0781 L86.9688,12.6563 L87.5938,12.6563 C87.8542,12.6563 88.0833,12.5729 88.2813,12.4063 C88.5313,12.1875 88.7396,11.8698 88.9063,11.4531 L89.0781,11 L86.6875,4.98438 L87.2188,4.98438 L89.3438,10.3438 L91.4844,4.98438 L92.0156,4.98438 L89.375,11.5625"/>
</g>

<g fill="none" stroke="#000000" stroke-opacity="1" stroke-width="1" stroke-linecap="square" stroke-linejoin="bevel" transform="matrix(1.99954,0,0,1.99954,88.0698,21.9949)"
font-family="sans" font-size="11" font-weight="100" font-style="normal" 
>
</g>

<g fill="none" stroke="#000000" stroke-opacity="1" stroke-width="1" stroke-linecap="square" stroke-linejoin="bevel" transform="matrix(1.99954,0,0,1.99954,88.0698,21.9949)"
font-family="Ubuntu" font-size="11" font-weight="400" font-style="normal" 
>
</g>

<g fill="none" stroke="#000000" stroke-opacity="1" stroke-width="1" stroke-linecap="square" stroke-linejoin="bevel" transform="matrix(1.99954,0,0,1.99954,0,71.9833)"
font-family="Ubuntu" font-size="11" font-weight="400" font-style="normal" 
>
</g>

<g fill="none" stroke="#000000" stroke-opacity="1" stroke-width="1" stroke-linecap="square" stroke-linejoin="bevel" transform="matrix(1.99954,0,0,1.99954,0,71.9833)"
font-family="Ubuntu" font-size="11" font-weight="400" font-style="normal" 
>
</g>

<g fill="none" stroke="#000000" stroke-opacity="1" stroke-width="1" stroke-linecap="square" stroke-linejoin="bevel" transform="matrix(1.99954,0,0,1.99954,0,71.9833)"
font-family="Ubuntu" font-size="11" font-weight="400" font-style="normal" 
>
</g>

<g fill="none" stroke="#000000" stroke-opacity="1" stroke-width="1" stroke-linecap="square" stroke-linejoin="round" transform="matrix(1.99954,0,0,1.99954,0,71.9833)"
font-family="Ubuntu" font-size="11" font-weight="400" font-style="normal" 
>
<path vector-effect="none" fill-rule="evenodd" d="M426.99,-18 C455.74,-18 491.55,-18 524.31,-18 "/>
</g>

<g fill="none" stroke="#000000" stroke-opacity="1" stroke-width="1" stroke-linecap="square" stroke-linejoin="bevel" transform="matrix(1.99954,0,0,1.99954,0,71.9833)"
font-family="Ubuntu" font-size="11" font-weight="400" font-style="normal" 
>
</g>

<g fill="none" stroke="#000000" stroke-opacity="1" stroke-width="1" stroke-linecap="square" stroke-linejoin="bevel" transform="matrix(1.99954,0,0,1.99954,890.849,6.99838)"
font-family="Ubuntu" font-size="11" font-weight="400" font-style="normal" 
>
</g>

<g fill="none" stroke="#000000" stroke-opacity="1" stroke-width="1" stroke-linecap="square" stroke-linejoin="bevel" transform="matrix(1.99954,0,0,1.99954,890.849,6.99838)"
font-family="sans" font-size="11" font-weight="100" font-style="normal" 
>
</g>

<g fill="#000000" fill-opacity="1" stroke="#000000" stroke-opacity="1" stroke-width="1" stroke-linecap="square" stroke-linejoin="round" transform="matrix(1.99954,0,0,1.99954,890.849,6.99838)"
font-family="sans" font-size="11" font-weight="100" font-style="normal" 
>
<path vector-effect="none" fill-rule="nonzero" d="M2.96875,2.98438 L3.53125,2.98438 L0.734375,12.0156 L0.171875,12.0156 L2.96875,2.98438 M5.46875,3.28125 L5.46875,4.98438 L7.5,4.98438 L7.5,5.40625 L5.46875,5.40625 L5.46875,9.01563 C5.46875,9.47396 5.52604,9.79688 5.64063,9.98438 C5.89063,10.3802 6.25,10.5781 6.71875,10.5781 L7.5,10.5781 L7.5,11 L6.73438,11 C6.24479,11 5.82813,10.8568 5.48438,10.5703 C5.14063,10.2839 4.96875,9.76563 4.96875,9.01563 L4.96875,5.40625 L4.25,5.40625 L4.25,4.98438 L4.96875,4.98438 L4.96875,3.28125 L5.46875,3.28125 M9.20313,8.60938 L9.20313,4.98438 L9.6875,4.98438 L9.6875,8.57813 C9.6875,9.35938 9.8125,9.90885 10.0625,10.2266 C10.3125,10.5443 10.6823,10.7031 11.1719,10.7031 C11.7448,10.7031 12.2344,10.5313 12.6406,10.1875 C13.0469,9.84375 13.25,9.24479 13.25,8.39063 L13.25,4.98438 L13.7344,4.98438 L13.7344,11 L13.25,11 L13.25,9.875 C13.0729,10.2396 12.8385,10.5156 12.5469,10.7031 C12.1302,10.9948 11.6667,11.1406 11.1563,11.1406 C10.5625,11.1406 10.0885,10.9375 9.73438,10.5313 C9.38021,10.1354 9.20313,9.49479 9.20313,8.60938 M19.5,5.40625 C19.4167,5.36458 19.3073,5.33333 19.1719,5.3125 C19.0469,5.29167 18.8958,5.28125 18.7188,5.28125 C18.1042,5.28125 17.599,5.50521 17.2031,5.95313 C16.8802,6.31771 16.7188,6.94271 16.7188,7.82813 L16.7188,11 L16.2344,11 L16.2344,4.98438 L16.7188,4.98438 L16.7188,6.10938 C16.8854,5.78646 17.1146,5.51563 17.4063,5.29688 C17.8021,4.99479 18.2708,4.84375 18.8125,4.84375 C18.9583,4.84375 19.0833,4.84896 19.1875,4.85938 C19.2917,4.85938 19.3958,4.86979 19.5,4.89063 L19.5,5.40625 M21.2656,3.28125 L21.2656,4.98438 L23.2969,4.98438 L23.2969,5.40625 L21.2656,5.40625 L21.2656,9.01563 C21.2656,9.47396 21.3229,9.79688 21.4375,9.98438 C21.6875,10.3802 22.0469,10.5781 22.5156,10.5781 L23.2969,10.5781 L23.2969,11 L22.5313,11 C22.0417,11 21.625,10.8568 21.2813,10.5703 C20.9375,10.2839 20.7656,9.76563 20.7656,9.01563 L20.7656,5.40625 L20.0469,5.40625 L20.0469,4.98438 L20.7656,4.98438 L20.7656,3.28125 L21.2656,3.28125 M25.0625,2.64063 L25.5469,2.64063 L25.5469,11 L25.0625,11 L25.0625,2.64063 M32.7969,7.75 L32.7969,8.0625 L28.2344,8.0625 C28.2344,9.02083 28.4219,9.69792 28.7969,10.0938 C29.2135,10.5208 29.8281,10.7344 30.6406,10.7344 C30.8594,10.7344 31.1458,10.6875 31.5,10.5938 C31.8542,10.5 32.2083,10.3594 32.5625,10.1719 L32.5625,10.6875 C32.2083,10.8438 31.8464,10.9609 31.4766,11.0391 C31.1068,11.1172 30.8125,11.1563 30.5938,11.1563 C29.6667,11.1563 28.9688,10.9063 28.5,10.4063 C27.9896,9.875 27.7344,9.09375 27.7344,8.0625 C27.7344,6.98958 27.9635,6.1875 28.4219,5.65625 C28.901,5.11458 29.5677,4.84375 30.4219,4.84375 C31.2031,4.84375 31.7969,5.10417 32.2031,5.625 C32.599,6.16667 32.7969,6.875 32.7969,7.75 M32.2969,7.64063 C32.2969,6.79688 32.1042,6.18229 31.7188,5.79688 C31.4063,5.45313 30.974,5.28125 30.4219,5.28125 C29.8281,5.28125 29.3281,5.45833 28.9219,5.8125 C28.5469,6.14583 28.3229,6.75521 28.25,7.64063 L32.2969,7.64063 M35.2656,10.5625 L37.0313,10.5625 L37.0313,3.46875 L34.8281,4.35938 L34.8281,3.85938 L37.0156,2.98438 L37.5625,2.98438 L37.5625,10.5625 L39.3438,10.5625 L39.3438,11 L35.2656,11 L35.2656,10.5625 M43.5781,2.98438 L44.1406,2.98438 L41.3438,12.0156 L40.7813,12.0156 L43.5781,2.98438 M46.0469,9.64063 L46.0469,13.2813 L45.5625,13.2813 L45.5625,4.98438 L46.0469,4.98438 L46.0469,6.35938 C46.276,5.83854 46.5208,5.47917 46.7813,5.28125 C47.1875,4.98958 47.5729,4.84375 47.9375,4.84375 C48.6458,4.84375 49.237,5.13281 49.7109,5.71094 C50.1849,6.28906 50.4219,7.05208 50.4219,8 C50.4219,8.94792 50.1849,9.71094 49.7109,10.2891 C49.237,10.8672 48.6458,11.1563 47.9375,11.1563 C47.5729,11.1563 47.1875,11.0052 46.7813,10.7031 C46.5208,10.5156 46.276,10.1615 46.0469,9.64063 M49.2813,10.0938 C49.6979,9.67708 49.9063,8.97917 49.9063,8 C49.9063,7.02083 49.6979,6.32292 49.2813,5.90625 C48.8646,5.48958 48.4271,5.28125 47.9688,5.28125 C47.5208,5.28125 47.0885,5.48958 46.6719,5.90625 C46.2656,6.32292 46.0625,7.02083 46.0625,8 C46.0625,8.97917 46.2656,9.67708 46.6719,10.0938 C47.0885,10.5104 47.5208,10.7188 47.9688,10.7188 C48.4271,10.7188 48.8646,10.5104 49.2813,10.0938 M56.1094,6.01563 C55.7552,5.52604 55.2708,5.28125 54.6563,5.28125 C54.0417,5.28125 53.5573,5.52604 53.2031,6.01563 C52.849,6.49479 52.6719,7.15104 52.6719,7.98438 C52.6719,8.83854 52.849,9.51042 53.2031,10 C53.5573,10.4896 54.0417,10.7344 54.6563,10.7344 C55.2708,10.7344 55.7552,10.4896 56.1094,10 C56.4635,9.5 56.6406,8.82813 56.6406,7.98438 C56.6406,7.16146 56.4635,6.50521 56.1094,6.01563 M54.6563,4.84375 C55.4167,4.84375 56.0208,5.13021 56.4688,5.70313 C56.9167,6.27604 57.1406,7.03646 57.1406,7.98438 C57.1406,8.97396 56.9167,9.75521 56.4688,10.3281 C56.0208,10.901 55.4167,11.1875 54.6563,11.1875 C53.875,11.1875 53.2604,10.901 52.8125,10.3281 C52.375,9.75521 52.1563,8.97396 52.1563,7.98438 C52.1563,7.02604 52.3802,6.26302 52.8281,5.69531 C53.276,5.1276 53.8854,4.84375 54.6563,4.84375 M62.6563,5.15625 L62.6563,5.70313 C62.3021,5.50521 62.0833,5.39583 62,5.375 C61.75,5.32292 61.4375,5.29167 61.0625,5.28125 C60.5,5.28125 60.0573,5.39063 59.7344,5.60938 C59.4844,5.79688 59.3594,6.11458 59.3594,6.5625 C59.3594,6.875 59.4792,7.11458 59.7188,7.28125 C59.9583,7.46875 60.3073,7.61458 60.7656,7.71875 L61.1094,7.78125 C61.6823,7.90625 62.1146,8.08333 62.4063,8.3125 C62.75,8.58333 62.9271,8.92708 62.9375,9.34375 C62.9375,9.90625 62.7708,10.349 62.4375,10.6719 C62.0833,10.9948 61.5052,11.1563 60.7031,11.1563 C60.2656,11.1563 59.9323,11.125 59.7031,11.0625 C59.4219,10.9896 59.1302,10.8958 58.8281,10.7813 L58.8281,10.1563 C59.2656,10.4063 59.5469,10.5521 59.6719,10.5938 C60.026,10.6875 60.3802,10.7344 60.7344,10.7344 C61.3073,10.7344 61.7344,10.6146 62.0156,10.375 C62.2969,10.125 62.4375,9.80729 62.4375,9.42188 C62.4375,9.08854 62.3438,8.84896 62.1563,8.70313 C61.8854,8.48438 61.4583,8.30729 60.875,8.17188 L60.5313,8.09375 C60.0208,7.96875 59.6354,7.80208 59.375,7.59375 C59.0417,7.32292 58.875,6.99479 58.875,6.60938 C58.875,5.98438 59.0755,5.53385 59.4766,5.25781 C59.8776,4.98177 60.3698,4.84375 60.9531,4.84375 C61.4531,4.84375 61.7969,4.86979 61.9844,4.92188 C62.2135,4.98438 62.4375,5.0625 62.6563,5.15625 M69.6563,7.75 L69.6563,8.0625 L65.0938,8.0625 C65.0938,9.02083 65.2813,9.69792 65.6563,10.0938 C66.0729,10.5208 66.6875,10.7344 67.5,10.7344 C67.7188,10.7344 68.0052,10.6875 68.3594,10.5938 C68.7135,10.5 69.0677,10.3594 69.4219,10.1719 L69.4219,10.6875 C69.0677,10.8438 68.7057,10.9609 68.3359,11.0391 C67.9661,11.1172 67.6719,11.1563 67.4531,11.1563 C66.526,11.1563 65.8281,10.9063 65.3594,10.4063 C64.849,9.875 64.5938,9.09375 64.5938,8.0625 C64.5938,6.98958 64.8229,6.1875 65.2813,5.65625 C65.7604,5.11458 66.4271,4.84375 67.2813,4.84375 C68.0625,4.84375 68.6563,5.10417 69.0625,5.625 C69.4583,6.16667 69.6563,6.875 69.6563,7.75 M69.1563,7.64063 C69.1563,6.79688 68.9635,6.18229 68.5781,5.79688 C68.2656,5.45313 67.8333,5.28125 67.2813,5.28125 C66.6875,5.28125 66.1875,5.45833 65.7813,5.8125 C65.4063,6.14583 65.1823,6.75521 65.1094,7.64063 L69.1563,7.64063"/>
</g>

<g fill="none" stroke="#000000" stroke-opacity="1" stroke-width="1" stroke-linecap="square" stroke-linejoin="bevel" transform="matrix(1.99954,0,0,1.99954,890.849,6.99838)"
font-family="sans" font-size="11" font-weight="100" font-style="normal" 
>
</g>

<g fill="none" stroke="#000000" stroke-opacity="1" stroke-width="1" stroke-linecap="square" stroke-linejoin="bevel" transform="matrix(1.99954,0,0,1.99954,890.849,6.99838)"
font-family="Ubuntu" font-size="11" font-weight="400" font-style="normal" 
>
</g>

<g fill="none" stroke="#000000" stroke-opacity="1" stroke-width="1" stroke-linecap="square" stroke-linejoin="bevel" transform="matrix(1.99954,0,0,1.99954,0,71.9833)"
font-family="Ubuntu" font-size="11" font-weight="400" font-style="normal" 
>
</g>

<g fill="#000000" fill-opacity="1" stroke="#000000" stroke-opacity="1" stroke-width="1" stroke-linecap="square" stroke-linejoin="round" transform="matrix(1.99954,0,0,1.99954,0,71.9833)"
font-family="Ubuntu" font-size="11" font-weight="400" font-style="normal" 
>
<path vector-effect="none" fill-rule="evenodd" d="M524.31,-18 L524.31,-14.479 L534.37,-18 L524.31,-21.521 L524.31,-18"/>
</g>

<g fill="none" stroke="#000000" stroke-opacity="1" stroke-width="1" stroke-linecap="square" stroke-linejoin="bevel" transform="matrix(1.99954,0,0,1.99954,0,71.9833)"
font-family="Ubuntu" font-size="11" font-weight="400" font-style="normal" 
>
</g>

<g fill="none" stroke="#000000" stroke-opacity="1" stroke-width="1" stroke-linecap="square" stroke-linejoin="bevel" transform="matrix(1.99954,0,0,1.99954,0,71.9833)"
font-family="Ubuntu" font-size="11" font-weight="400" font-style="normal" 
>
</g>

<g fill="none" stroke="#000000" stroke-opacity="1" stroke-width="1" stroke-linecap="square" stroke-linejoin="bevel" transform="matrix(1.99954,0,0,1.99954,0,71.9833)"
font-family="Ubuntu" font-size="11" font-weight="400" font-style="normal" 
>
</g>

<g fill="none" stroke="#000000" stroke-opacity="1" stroke-width="1" stroke-linecap="square" stroke-linejoin="bevel" transform="matrix(1.99954,0,0,1.99954,0,71.9833)"
font-family="Ubuntu" font-size="11" font-weight="400" font-style="normal" 
>
</g>

<g fill="none" stroke="#000000" stroke-opacity="1" stroke-width="1" stroke-linecap="square" stroke-linejoin="round" transform="matrix(1.99954,0,0,1.99954,0,71.9833)"
font-family="Ubuntu" font-size="11" font-weight="400" font-style="normal" 
>
<path vector-effect="none" fill-rule="evenodd" d="M180.8,-18 C220.68,-18 266.82,-18 303.46,-18 "/>
</g>

<g fill="none" stroke="#000000" stroke-opacity="1" stroke-width="1" stroke-linecap="square" stroke-linejoin="bevel" transform="matrix(1.99954,0,0,1.99954,0,71.9833)"
font-family="Ubuntu" font-size="11" font-weight="400" font-style="normal" 
>
</g>

<g fill="none" stroke="#000000" stroke-opacity="1" stroke-width="1" stroke-linecap="square" stroke-linejoin="bevel" transform="matrix(1.99954,0,0,1.99954,404.423,6.99838)"
font-family="Ubuntu" font-size="11" font-weight="400" font-style="normal" 
>
</g>

<g fill="none" stroke="#000000" stroke-opacity="1" stroke-width="1" stroke-linecap="square" stroke-linejoin="bevel" transform="matrix(1.99954,0,0,1.99954,404.423,6.99838)"
font-family="sans" font-size="11" font-weight="100" font-style="normal" 
>
</g>

<g fill="#000000" fill-opacity="1" stroke="#000000" stroke-opacity="1" stroke-width="1" stroke-linecap="square" stroke-linejoin="round" transform="matrix(1.99954,0,0,1.99954,404.423,6.99838)"
font-family="sans" font-size="11" font-weight="100" font-style="normal" 
>
<path vector-effect="none" fill-rule="nonzero" d="M2.96875,2.98438 L3.53125,2.98438 L0.734375,12.0156 L0.171875,12.0156 L2.96875,2.98438 M5.46875,3.28125 L5.46875,4.98438 L7.5,4.98438 L7.5,5.40625 L5.46875,5.40625 L5.46875,9.01563 C5.46875,9.47396 5.52604,9.79688 5.64063,9.98438 C5.89063,10.3802 6.25,10.5781 6.71875,10.5781 L7.5,10.5781 L7.5,11 L6.73438,11 C6.24479,11 5.82813,10.8568 5.48438,10.5703 C5.14063,10.2839 4.96875,9.76563 4.96875,9.01563 L4.96875,5.40625 L4.25,5.40625 L4.25,4.98438 L4.96875,4.98438 L4.96875,3.28125 L5.46875,3.28125 M9.20313,8.60938 L9.20313,4.98438 L9.6875,4.98438 L9.6875,8.57813 C9.6875,9.35938 9.8125,9.90885 10.0625,10.2266 C10.3125,10.5443 10.6823,10.7031 11.1719,10.7031 C11.7448,10.7031 12.2344,10.5313 12.6406,10.1875 C13.0469,9.84375 13.25,9.24479 13.25,8.39063 L13.25,4.98438 L13.7344,4.98438 L13.7344,11 L13.25,11 L13.25,9.875 C13.0729,10.2396 12.8385,10.5156 12.5469,10.7031 C12.1302,10.9948 11.6667,11.1406 11.1563,11.1406 C10.5625,11.1406 10.0885,10.9375 9.73438,10.5313 C9.38021,10.1354 9.20313,9.49479 9.20313,8.60938 M19.5,5.40625 C19.4167,5.36458 19.3073,5.33333 19.1719,5.3125 C19.0469,5.29167 18.8958,5.28125 18.7188,5.28125 C18.1042,5.28125 17.599,5.50521 17.2031,5.95313 C16.8802,6.31771 16.7188,6.94271 16.7188,7.82813 L16.7188,11 L16.2344,11 L16.2344,4.98438 L16.7188,4.98438 L16.7188,6.10938 C16.8854,5.78646 17.1146,5.51563 17.4063,5.29688 C17.8021,4.99479 18.2708,4.84375 18.8125,4.84375 C18.9583,4.84375 19.0833,4.84896 19.1875,4.85938 C19.2917,4.85938 19.3958,4.86979 19.5,4.89063 L19.5,5.40625 M21.2656,3.28125 L21.2656,4.98438 L23.2969,4.98438 L23.2969,5.40625 L21.2656,5.40625 L21.2656,9.01563 C21.2656,9.47396 21.3229,9.79688 21.4375,9.98438 C21.6875,10.3802 22.0469,10.5781 22.5156,10.5781 L23.2969,10.5781 L23.2969,11 L22.5313,11 C22.0417,11 21.625,10.8568 21.2813,10.5703 C20.9375,10.2839 20.7656,9.76563 20.7656,9.01563 L20.7656,5.40625 L20.0469,5.40625 L20.0469,4.98438 L20.7656,4.98438 L20.7656,3.28125 L21.2656,3.28125 M25.0625,2.64063 L25.5469,2.64063 L25.5469,11 L25.0625,11 L25.0625,2.64063 M32.7969,7.75 L32.7969,8.0625 L28.2344,8.0625 C28.2344,9.02083 28.4219,9.69792 28.7969,10.0938 C29.2135,10.5208 29.8281,10.7344 30.6406,10.7344 C30.8594,10.7344 31.1458,10.6875 31.5,10.5938 C31.8542,10.5 32.2083,10.3594 32.5625,10.1719 L32.5625,10.6875 C32.2083,10.8438 31.8464,10.9609 31.4766,11.0391 C31.1068,11.1172 30.8125,11.1563 30.5938,11.1563 C29.6667,11.1563 28.9688,10.9063 28.5,10.4063 C27.9896,9.875 27.7344,9.09375 27.7344,8.0625 C27.7344,6.98958 27.9635,6.1875 28.4219,5.65625 C28.901,5.11458 29.5677,4.84375 30.4219,4.84375 C31.2031,4.84375 31.7969,5.10417 32.2031,5.625 C32.599,6.16667 32.7969,6.875 32.7969,7.75 M32.2969,7.64063 C32.2969,6.79688 32.1042,6.18229 31.7188,5.79688 C31.4063,5.45313 30.974,5.28125 30.4219,5.28125 C29.8281,5.28125 29.3281,5.45833 28.9219,5.8125 C28.5469,6.14583 28.3229,6.75521 28.25,7.64063 L32.2969,7.64063 M35.2656,10.5625 L37.0313,10.5625 L37.0313,3.46875 L34.8281,4.35938 L34.8281,3.85938 L37.0156,2.98438 L37.5625,2.98438 L37.5625,10.5625 L39.3438,10.5625 L39.3438,11 L35.2656,11 L35.2656,10.5625 M43.5781,2.98438 L44.1406,2.98438 L41.3438,12.0156 L40.7813,12.0156 L43.5781,2.98438 M49.6719,5.28125 L49.6719,5.79688 C49.3802,5.61979 49.1354,5.5 48.9375,5.4375 C48.6042,5.33333 48.2865,5.28125 47.9844,5.28125 C47.1198,5.28125 46.5,5.5026 46.125,5.94531 C45.75,6.38802 45.5625,7.07292 45.5625,8 C45.5625,8.9375 45.75,9.6276 46.125,10.0703 C46.5,10.513 47.1198,10.7344 47.9844,10.7344 C48.276,10.7344 48.5573,10.6927 48.8281,10.6094 C49.1198,10.5365 49.401,10.4219 49.6719,10.2656 L49.6719,10.7656 C49.401,10.901 49.1198,11 48.8281,11.0625 C48.526,11.125 48.2292,11.1563 47.9375,11.1563 C47.0625,11.1563 46.3646,10.9167 45.8438,10.4375 C45.3229,9.95833 45.0625,9.14323 45.0625,7.99219 C45.0625,6.84115 45.3229,6.02604 45.8438,5.54688 C46.3646,5.07813 47.0625,4.84375 47.9375,4.84375 C48.2292,4.84375 48.5365,4.88542 48.8594,4.96875 C49.1823,5.04167 49.4531,5.14583 49.6719,5.28125 M55.9375,6.29688 C56.125,5.80729 56.4167,5.44271 56.8125,5.20313 C57.1979,4.96354 57.651,4.84375 58.1719,4.84375 C58.6927,4.84375 59.1094,5.02604 59.4219,5.39063 C59.7448,5.75521 59.9063,6.41667 59.9063,7.375 L59.9063,11 L59.4219,11 L59.4219,7.40625 C59.4219,6.57292 59.3073,6.01042 59.0781,5.71875 C58.849,5.42708 58.5417,5.28125 58.1563,5.28125 C57.6042,5.28125 57.1198,5.44792 56.7031,5.78125 C56.2344,6.15625 56,6.76042 56,7.59375 L56,11 L55.5156,11 L55.5156,7.40625 C55.5156,6.60417 55.4036,6.04948 55.1797,5.74219 C54.9557,5.4349 54.6458,5.28125 54.25,5.28125 C53.6979,5.28125 53.2135,5.45313 52.7969,5.79688 C52.3281,6.16146 52.0938,6.76042 52.0938,7.59375 L52.0938,11 L51.6094,11 L51.6094,4.98438 L52.0938,4.98438 L52.0938,6.10938 C52.2708,5.71354 52.5469,5.40104 52.9219,5.17188 C53.2865,4.95313 53.7396,4.84375 54.2813,4.84375 C54.6354,4.84375 54.974,4.95833 55.2969,5.1875 C55.5469,5.375 55.7604,5.74479 55.9375,6.29688 M66.3125,6.35938 L66.3125,2.64063 L66.7813,2.64063 L66.7813,11 L66.3125,11 L66.3125,9.64063 C66.0833,10.1615 65.8333,10.5156 65.5625,10.7031 C65.1667,11.0052 64.7865,11.1563 64.4219,11.1563 C63.7135,11.1563 63.1224,10.8672 62.6484,10.2891 C62.1745,9.71094 61.9375,8.94792 61.9375,8 C61.9375,7.05208 62.1745,6.28906 62.6484,5.71094 C63.1224,5.13281 63.7135,4.84375 64.4219,4.84375 C64.7865,4.84375 65.1667,4.98958 65.5625,5.28125 C65.8333,5.47917 66.0833,5.83854 66.3125,6.35938 M63.0781,5.90625 C62.6615,6.32292 62.4531,7.02083 62.4531,8 C62.4531,8.97917 62.6615,9.67708 63.0781,10.0938 C63.4948,10.5104 63.9323,10.7188 64.3906,10.7188 C64.8385,10.7188 65.2708,10.5104 65.6875,10.0938 C66.0938,9.67708 66.2969,8.97917 66.2969,8 C66.2969,7.02083 66.0938,6.32292 65.6875,5.90625 C65.2708,5.48958 64.8385,5.28125 64.3906,5.28125 C63.9323,5.28125 63.4948,5.48958 63.0781,5.90625 M73.6406,13.1719 L73.6406,13.5938 L67.9219,13.5938 L67.9219,13.1719 L73.6406,13.1719 M74.2344,4.98438 L74.75,4.98438 L76.7813,10.4531 L78.8281,4.98438 L79.3438,4.98438 L77.1094,11 L76.4688,11 L74.2344,4.98438 M85.9688,7.75 L85.9688,8.0625 L81.4063,8.0625 C81.4063,9.02083 81.5938,9.69792 81.9688,10.0938 C82.3854,10.5208 83,10.7344 83.8125,10.7344 C84.0313,10.7344 84.3177,10.6875 84.6719,10.5938 C85.026,10.5 85.3802,10.3594 85.7344,10.1719 L85.7344,10.6875 C85.3802,10.8438 85.0182,10.9609 84.6484,11.0391 C84.2786,11.1172 83.9844,11.1563 83.7656,11.1563 C82.8385,11.1563 82.1406,10.9063 81.6719,10.4063 C81.1615,9.875 80.9063,9.09375 80.9063,8.0625 C80.9063,6.98958 81.1354,6.1875 81.5938,5.65625 C82.0729,5.11458 82.7396,4.84375 83.5938,4.84375 C84.375,4.84375 84.9688,5.10417 85.375,5.625 C85.7708,6.16667 85.9688,6.875 85.9688,7.75 M85.4688,7.64063 C85.4688,6.79688 85.276,6.18229 84.8906,5.79688 C84.5781,5.45313 84.1458,5.28125 83.5938,5.28125 C83,5.28125 82.5,5.45833 82.0938,5.8125 C81.7188,6.14583 81.4948,6.75521 81.4219,7.64063 L85.4688,7.64063 M88.0469,2.64063 L88.5313,2.64063 L88.5313,11 L88.0469,11 L88.0469,2.64063"/>
</g>

<g fill="none" stroke="#000000" stroke-opacity="1" stroke-width="1" stroke-linecap="square" stroke-linejoin="bevel" transform="matrix(1.99954,0,0,1.99954,404.423,6.99838)"
font-family="sans" font-size="11" font-weight="100" font-style="normal" 
>
</g>

<g fill="none" stroke="#000000" stroke-opacity="1" stroke-width="1" stroke-linecap="square" stroke-linejoin="bevel" transform="matrix(1.99954,0,0,1.99954,404.423,6.99838)"
font-family="Ubuntu" font-size="11" font-weight="400" font-style="normal" 
>
</g>

<g fill="none" stroke="#000000" stroke-opacity="1" stroke-width="1" stroke-linecap="square" stroke-linejoin="bevel" transform="matrix(1.99954,0,0,1.99954,0,71.9833)"
font-family="Ubuntu" font-size="11" font-weight="400" font-style="normal" 
>
</g>

<g fill="#000000" fill-opacity="1" stroke="#000000" stroke-opacity="1" stroke-width="1" stroke-linecap="square" stroke-linejoin="round" transform="matrix(1.99954,0,0,1.99954,0,71.9833)"
font-family="Ubuntu" font-size="11" font-weight="400" font-style="normal" 
>
<path vector-effect="none" fill-rule="evenodd" d="M303.46,-18 L303.46,-14.4755 L313.53,-18 L303.46,-21.5245 L303.46,-18"/>
</g>

<g fill="none" stroke="#000000" stroke-opacity="1" stroke-width="1" stroke-linecap="square" stroke-linejoin="bevel" transform="matrix(1.99954,0,0,1.99954,0,71.9833)"
font-family="Ubuntu" font-size="11" font-weight="400" font-style="normal" 
>
</g>

<g fill="none" stroke="#000000" stroke-opacity="1" stroke-width="1" stroke-linecap="square" stroke-linejoin="bevel" transform="matrix(1,0,0,1,0,0)"
font-family="Ubuntu" font-size="11" font-weight="400" font-style="normal" 
>
</g>
</g>
</svg>
